<?xml version="1.0" encoding="UTF-8"?>
<svg id="Calque_1" xmlns="http://www.w3.org/2000/svg" version="1.1" viewBox="0 0 206.85 206.81">
  <!-- Generator: Adobe Illustrator 29.1.0, SVG Export Plug-In . SVG Version: 2.1.0 Build 142)  -->
  <defs>
    <style>
      .st0 {
        fill: #371f1d;
      }
    </style>
  </defs>
  <path class="st0" d="M139.95,200.19c.68-.26,1.32-.64,2-.91.68-.27,1.3-.68,1.97-.97.67-.29,1.43-.38,2.09-.68.33-.15.61-.41.89-.68.37-.07.74-.14,1.07-.3.5-.24.94-.61,1.4-.92.17-.06.33-.12.49-.2.65-.33,1.32-.63,1.96-.98.64-.34,1.42-.46,2.05-.82.38-.21.67-.55.98-.88.26-.15.52-.31.78-.46.63-.37,1.27-.73,1.89-1.11.15-.09.3-.19.46-.28.48-.27.97-.53,1.43-.83.19-.13.37-.27.55-.42.42-.27.85-.53,1.26-.81.6-.41,1.16-.88,1.76-1.31.6-.42,1.22-.81,1.8-1.25.21-.16.41-.33.61-.49.43-.21.88-.39,1.25-.68.22-.17.4-.41.57-.65.41-.21.83-.4,1.18-.68.3-.24.51-.59.72-.93.34-.14.68-.27.94-.5.56-.47.96-1.13,1.51-1.61.22-.2.45-.39.68-.58.36-.25.73-.49,1.05-.78.54-.49.98-1.09,1.51-1.6.53-.51,1.04-1.03,1.55-1.54.04-.04.08-.08.12-.12.51-.45,1.17-.74,1.64-1.23.42-.44.76-.96,1.15-1.43.09-.09.19-.16.27-.25.1-.11.19-.24.29-.35.43-.39.91-.74,1.3-1.18.48-.55.83-1.22,1.3-1.78.47-.56,1.1-.99,1.56-1.56.3-.37.51-.8.75-1.21.18-.19.37-.37.52-.58.45-.58.84-1.2,1.28-1.78.43-.59.7-1.3,1.12-1.89.42-.6,1.07-1.04,1.48-1.64.41-.6.74-1.27,1.14-1.88.4-.61.56-1.37.94-2,.38-.62,1.1-1.04,1.47-1.67.2-.33.27-.73.34-1.13.25-.26.5-.51.67-.82.26-.45.33-1.01.48-1.52.11-.18.24-.35.34-.53.23-.44.39-.92.57-1.39.1-.21.21-.41.32-.62.05-.09.09-.19.14-.29.36-.52.91-.94,1.18-1.51.19-.39.26-.84.34-1.28.18-.24.35-.49.47-.76.12-.27.19-.57.25-.87.26-.36.54-.71.71-1.11.17-.4.3-.82.43-1.24.21-.23.4-.47.51-.75.27-.68.27-1.47.52-2.15.26-.68.74-1.28.99-1.97.24-.69.4-1.41.63-2.1.08-.25.12-.51.15-.77.22-.43.46-.85.6-1.3.11-.37.1-.78.09-1.19.16-.31.32-.62.41-.95.2-.7.53-1.37.71-2.08.18-.71.25-1.45.42-2.16.12-.5.25-.99.38-1.49.11-.2.2-.41.25-.62.04-.21.05-.42.04-.64.1-.51.21-1.02.31-1.53.08-.4.03-.82-.01-1.23.1-.31.21-.63.26-.95.06-.37.09-.74.11-1.11.15-.34.3-.68.35-1.03.08-.54.12-1.08.17-1.63.05-.18.09-.36.11-.55.04-.33,0-.67-.04-1.02-.02-.4-.04-.8,0-1.19.04-.37.11-.74.18-1.11.1-.35.19-.7.22-1.05.06-.73.39-1.44.43-2.17.02-.27-.03-.55-.08-.82,0-.46.01-.92.03-1.38.03-.73.15-1.46.17-2.19.02-.73-.01-1.46-.01-2.2,0-.43-.06-.86-.11-1.29.05-.31.09-.62.09-.93,0-.36-.07-.72-.14-1.08.01-.36.02-.73,0-1.09-.03-.73-.18-1.46-.22-2.18,0-.1-.02-.21-.03-.31-.04-.66-.07-1.31-.12-1.97-.06-.74.07-1.49,0-2.23-.04-.33-.13-.66-.24-.98-.06-.36-.12-.71-.16-1.07-.05-.43-.22-.84-.37-1.25-.08-.34-.17-.69-.22-1.04-.03-.17-.04-.34-.05-.51.03-.52.12-1.05.03-1.55-.04-.26-.14-.5-.24-.75-.08-.53-.16-1.07-.26-1.6-.07-.38-.17-.76-.27-1.13,0-.28,0-.56-.05-.83-.06-.26-.16-.51-.27-.76-.03-.55,0-1.12-.12-1.65-.17-.72-.38-1.43-.56-2.15-.19-.71-.63-1.36-.84-2.07s-.26-1.46-.48-2.17c-.22-.71-.45-1.41-.68-2.11-.04-.11-.09-.21-.13-.31-.11-.49-.2-1-.37-1.47-.24-.69-.71-1.3-.97-1.98-.26-.68-.35-1.43-.63-2.11-.27-.68-.68-1.3-.97-1.97-.19-.45-.35-.91-.53-1.36-.11-.38-.22-.77-.39-1.13-.08-.17-.18-.34-.28-.5-.15-.36-.3-.72-.47-1.07-.3-.62-.66-1.21-.98-1.82-.07-.2-.15-.4-.24-.59-.34-.66-.54-1.39-.89-2.04-.35-.65-.77-1.27-1.14-1.91-.36-.64-.81-1.24-1.19-1.87-.38-.63-.99-1.12-1.39-1.75-.39-.62-.48-1.44-.89-2.06-.37-.57-1-.97-1.42-1.51-.26-.52-.44-1.1-.77-1.57-.42-.6-1.01-1.07-1.45-1.66-.44-.59-1.02-1.06-1.47-1.63-.45-.58-.8-1.23-1.26-1.8-.46-.57-1.02-1.05-1.49-1.61-.47-.56-.79-1.25-1.27-1.79-.48-.55-1.03-1.04-1.53-1.57s-1.02-1.04-1.53-1.57c-.51-.53-1.09-.98-1.6-1.49s-1.07-.99-1.6-1.5c-.53-.51-.82-1.25-1.36-1.75-.54-.49-1.03-1.05-1.57-1.53-.55-.48-1.16-.89-1.72-1.36s-1.24-.8-1.8-1.26c-.57-.46-.95-1.15-1.53-1.6s-1.26-.76-1.84-1.2c-.59-.43-1.38-.59-1.97-1.01-.6-.42-.96-1.18-1.56-1.59-.6-.41-1.42-.51-2.03-.9-.61-.4-1.09-1-1.71-1.39-.62-.38-1.35-.59-1.98-.96-.63-.37-1.32-.62-1.96-.97-.64-.36-1.2-.84-1.85-1.18-.64-.34-1.26-.74-1.91-1.07-.65-.33-1.18-.91-1.84-1.23-.66-.32-1.46-.33-2.12-.63-.66-.3-1.27-.73-1.95-1.01-.67-.29-1.33-.6-2.01-.87-.68-.27-1.37-.5-2.06-.76-.68-.26-1.3-.71-1.99-.96-.69-.24-1.44-.3-2.14-.53-.69-.23-1.47-.17-2.17-.39-.7-.21-1.35-.56-2.06-.76-.7-.2-1.42-.32-2.13-.51-.71-.18-1.38-.48-2.09-.65-.71-.17-1.37-.55-2.09-.71-.71-.15-1.46-.16-2.18-.3-.72-.14-1.46-.14-2.18-.26-.72-.12-1.38-.62-2.1-.73-.72-.11-1.5.21-2.23.11-.72-.09-1.44-.26-2.17-.34-.73-.08-1.45-.15-2.18-.21-.73-.06-1.47.11-2.2.07-.73-.05-1.45-.11-2.18-.14-.73-.03-1.45-.21-2.18-.23-.73-.02-1.46-.28-2.19-.28s-1.46.25-2.19.27c-.73.02-1.47-.1-2.2-.07-.73.03-1.46.16-2.18.2-.73.05-1.46.12-2.18.18-.73.06-1.43.37-2.16.45-.73.08-1.44.21-2.16.31-.73.09-1.51-.27-2.23-.17-.72.11-1.44.25-2.16.37-.72.12-1.44.27-2.15.41-.72.14-1.41.41-2.12.56-.72.15-1.37.53-2.08.7-.71.17-1.53-.1-2.24.09-.71.18-1.34.63-2.05.83-.7.2-1.46.21-2.16.42-.7.21-1.4.43-2.09.66-.69.23-1.34.59-2.03.84-.69.24-1.42.36-2.11.62-.68.26-1.22.9-1.89,1.18-.68.27-1.47.27-2.14.55-.67.29-1.28.71-1.95,1.01-.67.3-1.5.25-2.16.56-.66.32-1.24.79-1.9,1.12-.65.33-1.31.65-1.96.99-.64.34-1.15.93-1.79,1.29-.64.36-1.42.46-2.05.83-.63.37-.99,1.19-1.61,1.57-.62.38-1.45.43-2.06.83-.61.4-1.29.7-1.9,1.11-.6.41-1.03,1.08-1.63,1.5-.6.42-1.36.61-1.95,1.05-.59.44-.97,1.14-1.55,1.59-.58.45-1.33.68-1.9,1.13-.57.46-1.05,1.03-1.61,1.5-.56.47-.96,1.12-1.5,1.61-.55.48-1.26.78-1.8,1.27-.54.49-.92,1.15-1.45,1.66-.53.51-1.31.76-1.82,1.27-.52.52-.85,1.21-1.36,1.74-.51.53-1.21.87-1.71,1.4-.49.54-.83,1.23-1.31,1.77-.48.55-.84,1.21-1.31,1.76-.47.56-1.21.9-1.66,1.47-.46.57-.92,1.14-1.37,1.72-.45.58-.65,1.34-1.08,1.93-.43.59-1.02,1.07-1.44,1.66-.07.1-.12.2-.18.3-.31.28-.62.56-.84.89-.42.61-.89,1.19-1.29,1.81-.41.62-.76,1.28-1.15,1.9-.39.63-.64,1.34-1.02,1.98-.17.28-.33.57-.49.86-.3.51-.6,1.01-.89,1.52-.07.12-.15.24-.23.36-.24.34-.49.68-.69,1.05-.02.04-.04.09-.06.13-.07.11-.14.21-.2.32-.14.27-.22.57-.29.88-.09.25-.19.49-.31.72-.34.66-.44,1.43-.77,2.09-.27.56-.79,1.01-1.13,1.53-.2.2-.38.41-.49.65-.15.32-.24.66-.34,1.01-.1.21-.21.43-.3.65-.29.68-.37,1.45-.65,2.13-.22.54-.47,1.07-.7,1.6-.18.23-.35.47-.45.74-.12.31-.16.64-.19.98-.09.27-.19.53-.28.79-.25.7-.62,1.35-.85,2.05-.19.57-.33,1.17-.49,1.75-.12.21-.23.43-.3.66-.21.7-.15,1.48-.35,2.18-.07.26-.12.53-.17.79-.1.36-.19.71-.29,1.07-.08.32-.15.64-.21.96-.2.46-.43.91-.54,1.39-.17.71-.52,1.38-.68,2.1-.15.71-.27,1.44-.41,2.16-.14.72,0,1.49-.12,2.21-.12.72-.58,1.39-.69,2.11-.05.3-.03.61,0,.93-.13.37-.26.73-.31,1.11-.09.73-.07,1.48-.15,2.22-.02.18-.02.35-.02.53-.06.59-.11,1.18-.16,1.77-.04.42-.06.85-.09,1.28-.07.28-.13.56-.15.84-.05.74.23,1.49.2,2.23-.03.61.09,1.21.12,1.82,0,.14-.03.28-.03.42-.02.73-.45,1.45-.45,2.19s.17,1.39.2,2.09c0,.04,0,.07,0,.11,0,.04,0,.09.01.13,0,.69-.03,1.38,0,2.06.03.73.19,1.45.24,2.18.02.27.05.53.08.8-.05.47-.12.94-.08,1.4.03.33.12.65.22.97-.03.41-.06.81-.01,1.21.08.73.19,1.45.28,2.18.05.37.15.73.26,1.09.01.36.03.72.08,1.07.05.3.14.6.24.9,0,.43,0,.86.08,1.27.12.72.23,1.45.36,2.16.14.72.44,1.4.59,2.12.15.72.2,1.45.37,2.16.17.71.35,1.42.53,2.13.18.71.54,1.37.74,2.07.2.7.44,1.39.66,2.09.21.7.14,1.49.37,2.18.08.23.19.45.32.66.07.49.1,1,.26,1.46.24.69.61,1.34.87,2.02.26.68.82,1.25,1.09,1.93.27.68.2,1.5.49,2.17.21.49.52.94.8,1.4.04.2.1.39.18.57.29.65.91,1.14,1.23,1.78,0,.02.02.03.03.05,0,.01,0,.02.02.04.3.65.32,1.44.64,2.08.33.65.56,1.36.91,2,.34.64.79,1.24,1.15,1.87.36.64.69,1.29,1.06,1.92.22.38.49.73.76,1.08.11.28.22.55.38.8.38.62.92,1.15,1.32,1.76.28.44.53.9.78,1.36.09.19.19.38.3.55.41.6.95,1.12,1.38,1.71.42.6,1.03,1.05,1.47,1.64.44.59.68,1.32,1.13,1.89.19.24.41.46.64.67.21.38.41.76.68,1.09.28.35.58.69.87,1.04.12.27.25.52.43.74.19.23.41.43.63.63.24.37.47.75.76,1.08.48.55,1.15.94,1.64,1.48.49.54,1.04,1.02,1.55,1.55s.79,1.27,1.31,1.79c.32.32.74.55,1.14.8.14.25.29.48.49.67.53.51,1.22.84,1.76,1.33.54.49,1.13.93,1.67,1.41.55.48,1.01,1.06,1.57,1.54.02.02.04.03.06.04.54.46,1.06.94,1.61,1.38.26.21.56.39.86.56.28.28.55.57.86.81.57.44,1.19.82,1.77,1.25,0,0,.02.01.02.02.59.44,1.09.99,1.69,1.41.16.11.33.21.5.3.4.36.78.76,1.23,1.06.6.41,1.25.77,1.87,1.16.36.24.8.35,1.24.48.21.22.43.43.68.59.3.19.64.32.97.46.27.28.54.55.87.74.63.37,1.37.56,2,.92.64.36,1.3.66,1.95,1,.41.22.8.47,1.19.71.22.17.44.33.68.45.11.05.22.09.33.14.52.33,1,.75,1.55,1.01.48.23,1.04.28,1.57.41.17.1.35.2.53.28.29.13.58.25.88.37.36.22.71.44,1.09.6.58.25,1.19.46,1.79.69.09.04.17.08.25.12.11.05.23.08.35.12.56.23,1.12.48,1.68.69.68.26,1.35.56,2.04.81.69.24,1.37.51,2.07.74.31.1.64.19.96.27.36.19.72.38,1.1.5.33.1.7.1,1.07.1.37.1.73.21,1.1.31.7.2,1.45.23,2.16.42.39.1.76.23,1.14.36.3.17.6.33.93.41.22.05.46.07.7.07.48.14.96.28,1.45.39.37.08.77.06,1.17.04.33.13.66.26,1,.32.72.14,1.41.43,2.13.56.33.06.69,0,1.04-.06.39.06.77.12,1.16.18.72.11,1.44.26,2.16.35.72.09,1.43.33,2.16.41.73.08,1.46.1,2.19.16.73.06,1.47-.04,2.2,0,.45.03.89.1,1.34.16.28.08.56.15.84.16.73.03,1.46,0,2.2,0,.73.02,1.46.02,2.19.02s1.46-.11,2.19-.13c.73-.02,1.46-.07,2.19-.1.73-.03,1.46-.05,2.19-.09.24-.02.48-.06.72-.12.49-.04.98-.07,1.46-.11.34-.03.68-.05,1.03-.08.4.09.8.18,1.18.14.58-.06,1.16-.22,1.74-.33.14,0,.29,0,.43-.03.42-.05.83-.11,1.25-.16.31-.02.62-.04.93-.09.72-.11,1.44-.27,2.16-.4.72-.12,1.44-.27,2.16-.41.72-.14,1.4-.44,2.12-.59.71-.15,1.42-.33,2.13-.49.71-.17,1.45-.23,2.16-.41.68-.18,1.32-.5,1.99-.7.03,0,.05-.02.08-.02.23-.07.47-.11.71-.16.49-.08.98-.14,1.44-.29.7-.21,1.35-.59,2.04-.82.69-.23,1.44-.3,2.13-.55.32-.11.63-.26.94-.4.39-.07.78-.14,1.15-.28ZM137.64,80.6c-.68.27-1.33.62-2.01.87-.68.25-1.37.51-2.06.75-.69.23-1.43.32-2.13.54-.7.22-1.44.26-2.14.46-.7.2-1.29.8-2,.98-.71.19-1.49.05-2.2.22-.71.17-1.43.27-2.15.42-.71.15-1.39.5-2.1.63-.72.13-1.4.5-2.12.61-.72.12-1.46.1-2.19.2-.72.1-1.49-.14-2.21-.06-.72.08-1.4.62-2.13.69-.73.07-1.49-.35-2.22-.3-.73.05-1.44.38-2.17.41-.73.03-1.45.27-2.18.29-.73.02-1.46-.29-2.2-.29s-1.46,0-2.19-.02c-.73-.02-1.47.09-2.19.06-.73-.03-1.43-.45-2.16-.5-.73-.05-1.5.42-2.22.35-.73-.07-1.44-.31-2.16-.4-.73-.08-1.41-.45-2.13-.55-.72-.1-1.52.26-2.24.14-.72-.12-1.41-.42-2.13-.56-.72-.14-1.47-.1-2.19-.25-.71-.15-1.35-.67-2.06-.84-.71-.17-1.46-.19-2.16-.37-.71-.19-1.41-.4-2.11-.6-.7-.2-1.43-.33-2.12-.54-.7-.22-1.43-.35-2.12-.59-.69-.23-1.36-.55-2.04-.8-.69-.25-1.31-.68-1.98-.95-.68-.27-1.4-.44-2.07-.72-.67-.28-1.19-.92-1.85-1.22-.67-.3-1.4-.44-2.06-.76-.66-.31-1.4-.46-2.05-.79-.65-.33-1.11-1.02-1.75-1.37-.64-.35-1.31-.64-1.94-1s-1.49-.35-2.11-.72c-.63-.38-.98-1.18-1.6-1.57-.62-.39-1.28-.7-1.89-1.1-.61-.4-1.32-.65-1.92-1.07-.6-.42-1.15-.91-1.73-1.34-.59-.43-1.1-.96-1.68-1.41-.58-.45-1.38-.61-1.94-1.07-.57-.46-1.16-.89-1.72-1.37-.55-.47-1.01-1.07-1.55-1.56-.54-.49-.88-1.2-1.41-1.7-.53-.5-1.08-.98-1.6-1.49-.52-.51-.96-1.09-1.47-1.62-.51-.52-1.43-.65-1.93-1.19-.5-.54-.79-1.25-1.28-1.8-.48-.55-1.06-1.01-1.53-1.57-.47-.56-.9-1.15-1.36-1.72-.46-.57-.96-1.11-1.4-1.69-.44-.58-.64-1.34-1.07-1.94-.43-.59-.76-1.24-1.18-1.85-.42-.6-.99-1.09-1.39-1.7-.04-.06-.07-.12-.1-.18.21-.17.42-.34.58-.55.44-.58.76-1.25,1.21-1.82.45-.57.9-1.15,1.36-1.71.47-.56.9-1.15,1.38-1.7.48-.55.82-1.23,1.31-1.76.49-.54,1.31-.77,1.81-1.29.5-.53.85-1.21,1.36-1.72s.99-1.07,1.51-1.58c.53-.5,1.15-.9,1.69-1.39.54-.49.98-1.09,1.53-1.57.55-.48,1.22-.81,1.78-1.28.56-.47,1.07-.98,1.64-1.44.57-.45,1.19-.84,1.77-1.28.58-.44,1.29-.7,1.88-1.13.59-.43,1.14-.9,1.74-1.31.6-.42.97-1.17,1.57-1.57.61-.4,1.42-.48,2.04-.87.62-.39,1.13-.94,1.75-1.32.62-.37,1.23-.79,1.86-1.15.63-.36,1.33-.61,1.97-.95.64-.35,1.4-.46,2.04-.79.65-.33,1.13-.98,1.79-1.3.65-.32,1.4-.45,2.06-.75.66-.3,1.3-.65,1.97-.93.67-.29,1.35-.53,2.03-.8.67-.27,1.37-.48,2.05-.74.68-.26,1.37-.48,2.06-.72.69-.24,1.35-.55,2.04-.78.69-.23,1.38-.47,2.07-.68.7-.21,1.35-.57,2.05-.76.7-.19,1.44-.26,2.14-.43.7-.18,1.43-.26,2.14-.42.71-.16,1.34-.68,2.06-.83.71-.15,1.48-.04,2.19-.17.72-.13,1.43-.27,2.15-.38.72-.11,1.44-.17,2.17-.26.72-.1,1.46-.03,2.18-.11.72-.08,1.44-.2,2.16-.27.72-.06,1.44-.28,2.16-.32.72-.05,1.46.04,2.19.01.73-.03,1.45-.24,2.18-.26.73-.02,1.46,0,2.18,0s1.45.22,2.18.24c.73.02,1.46-.08,2.18-.05.73.03,1.46-.07,2.19-.02.73.05,1.44.32,2.16.39.73.06,1.5-.34,2.22-.26.72.08,1.42.43,2.14.52.72.1,1.44.24,2.16.35.72.11,1.39.5,2.11.63.72.13,1.52-.17,2.23-.02.71.15,1.39.46,2.1.62.71.16,1.4.41,2.1.59.71.18,1.46.18,2.16.37.7.19,1.41.37,2.11.58.7.21,1.38.47,2.07.7.69.23,1.28.76,1.97,1,.69.24,1.53.05,2.21.3.68.26,1.19.96,1.86,1.23.68.27,1.44.33,2.1.62.67.29,1.32.62,1.98.93.66.3,1.39.46,2.05.78.66.32,1.26.73,1.91,1.07.65.33,1.14.96,1.78,1.3.64.35,1.36.54,1.99.9.63.36,1.15.9,1.78,1.28.62.37,1.33.6,1.95.99.62.39,1.11.96,1.72,1.36.61.4,1.34.61,1.94,1.02.6.42,1.34.63,1.93,1.06.59.43,1.18.86,1.76,1.3.58.44.92,1.19,1.49,1.64.57.45,1.42.57,1.98,1.03.56.47,1.07,1,1.62,1.48.55.48,1.11.95,1.64,1.45.54.49.8,1.27,1.33,1.77.53.5,1.32.73,1.83,1.25.51.51,1.03,1.03,1.54,1.56.5.53,1.02,1.04,1.52,1.58.49.54.76,1.27,1.24,1.82.48.55,1.2.89,1.67,1.45.47.56.53,1.45.98,2.02.45.57,1.13.96,1.58,1.54.13.17.24.36.35.55-.07.08-.15.16-.21.25-.4.61-.65,1.32-1.07,1.92-.42.6-.9,1.15-1.33,1.74-.43.59-.73,1.28-1.17,1.86-.44.58-1.19.92-1.65,1.49-.46.57-.59,1.41-1.06,1.96-.47.56-1.09.99-1.58,1.54-.48.55-1.04,1.03-1.53,1.57-.5.54-.84,1.22-1.34,1.74-.51.52-1.27.8-1.79,1.31-.52.51-1.07.99-1.6,1.49-.53.5-.95,1.12-1.5,1.6-.54.49-1.07.99-1.63,1.46-.56.47-1.08.99-1.64,1.45-.57.46-1.12.94-1.7,1.39-.58.45-1.26.75-1.85,1.19-.59.43-1.27.73-1.87,1.15-.6.42-1.12.94-1.73,1.34-.61.41-1.1.99-1.72,1.38-.62.39-1.31.65-1.94,1.03-.63.38-1.33.61-1.97.97-.63.36-1.18.88-1.82,1.23-.64.35-1.3.67-1.95,1-.65.33-1.39.48-2.05.8-.66.31-1.18.92-1.84,1.22-.67.3-1.39.45-2.07.74-.67.28-1.35.54-2.03.81Z"/>
  <path class="st0" d="M141.56,44.89c.49-.58.85-1.22,1.17-1.88.32-.67.58-1.35.74-2.08.15-.71.22-1.45.22-2.2s.05-.79.05-1.58-.07-1.52-.21-2.24c-.15-.75-.37-1.47-.66-2.15-.29-.7-.64-1.38-1.05-1.98-.43-.62-.93-1.19-1.48-1.69-.55-.51-1.21-.88-1.86-1.24-.65-.36-1.32-.7-2.05-.89-.71-.19-1.46-.31-2.22-.31-1.13,0-1.13.04-2.26.05-1.13.02-1.13.03-2.26.03s-1.13,0-2.26,0-1.13.03-2.26.03-1.13-.05-2.26-.05-1.13-.04-2.25-.04-1.13,0-2.25,0-1.13.08-2.25.08-1.13-.08-2.25-.08-1.13.03-2.25.03-1.41-.73-2.23.04c-.78.74-.25,1.07-.02,2.11.48,0,.93.51,1.33,1.41.23.52.41,1.18.59,1.94.15.6.32,1.26.44,1.99.1.63.15,1.31.23,2.03.07.65.16,1.32.21,2.03.04.66.05,1.34.07,2.04.02.67.05,1.35.05,2.04,0,1.03.04,1.03.04,2.07s-.01,1.03-.01,2.07-.04,1.03-.04,2.07,0,1.03,0,2.07-.03,1.03-.03,2.07c0,.69.02,1.38,0,2.04-.02.7-.04,1.38-.08,2.04-.05.7-.16,1.38-.23,2.03-.08.71-.12,1.39-.22,2.02-.12.73-.22,1.41-.37,2.01-.19.76-.4,1.42-.63,1.94-.39.9-.88,1.4-1.36,1.4-.23,1.01-.78,1.4,0,2.09.87.78,1.17-.03,2.34-.03s1.16.02,2.33.02,1.16.02,2.33.02,1.16-.05,2.32-.05,1.43.76,2.29-.02c.77-.69.27-1.04.05-2.05-.47,0-.95-.5-1.34-1.41-.22-.52-.44-1.18-.63-1.94-.15-.6-.28-1.27-.4-2-.1-.63-.16-1.31-.24-2.03-.07-.65-.18-1.32-.23-2.02-.05-.66-.03-1.34-.06-2.04-.02-.67-.06-1.35-.06-2.04,0-.87.02-.87.02-1.73s-.69-1.2,0-1.72c.9-.69,1.12,0,2.25,0s1.13-.01,2.26-.01,1.13.05,2.26.05,1.13-.08,2.26-.08,1.13,0,2.26,0c.77,0,1.52.05,2.22,0,.77-.06,1.5-.23,2.19-.35.77-.13,1.5-.24,2.17-.44.75-.23,1.45-.48,2.08-.78.7-.34,1.29-.79,1.86-1.21.62-.46,1.19-.93,1.65-1.47ZM137.75,38.79c0,.72-.06,1.43-.25,2.08-.2.69-.51,1.32-.88,1.9-.38.6-.84,1.14-1.37,1.58-.54.45-1.17.77-1.82,1.02-.64.24-1.33.37-2.04.37-1.11,0-1.11,0-2.22,0s-1.11-.02-2.22-.02-1.11,0-2.22,0-1.11.08-2.21.08-1.11-.07-2.21-.07-1.4.78-2.18-.01c-.79-.8-.3-1.06-.06-2.22.23-1.1,0-1.12,0-2.24s.04-1.12.04-2.24-.04-1.12-.04-2.24.05-1.12.05-2.24-.02-1.12-.02-2.24-.77-1.44.01-2.23c.78-.79,1.1,0,2.21,0s1.11,0,2.22,0,1.11-.01,2.22-.01,1.11.05,2.21.05,1.11-.08,2.21-.08,1.11,0,2.21,0c.72,0,1.39.2,2.04.45.65.25,1.3.54,1.84,1,.53.44.94,1.02,1.32,1.62.37.58.64,1.22.83,1.91.19.66.37,1.34.37,2.06,0,.85-.05.85-.05,1.7Z"/>
  <path class="st0" d="M101.23,64.73c-.22-.52-.39-1.19-.57-1.95-.14-.6-.3-1.27-.42-1.99-.1-.63-.17-1.31-.25-2.02-.07-.65-.15-1.32-.19-2.03-.04-.66-.01-1.34-.03-2.04-.02-.67-.03-1.35-.03-2.04,0-1.03-.02-1.03-.02-2.07s0-1.03,0-2.07-.05-1.03-.05-2.07.03-1.03.03-2.07,0-1.03,0-2.07c0-.69.07-1.37.09-2.04.02-.7.07-1.38.11-2.03.05-.7.09-1.38.16-2.03.08-.71.14-1.39.24-2.02.12-.73.23-1.4.38-2,.18-.76.41-1.4.63-1.93.39-.92.8-1.45,1.27-1.45.23-1.05.76-1.38-.02-2.11-.85-.79-1.13-.05-2.29-.05s-1.16-.02-2.32-.02-1.16.03-2.31.03-1.16.01-2.31.01-1.46-.78-2.31,0c-.79.73-.26,1.1-.03,2.14.47,0,.94.51,1.33,1.42.23.52.46,1.17.64,1.93.15.6.29,1.27.41,2,.1.63.21,1.31.29,2.02.07.65.13,1.33.18,2.03.05.66.09,1.34.12,2.04.02.67.01,1.35.01,2.04,0,1.29.27,1.33-.02,2.59-.63.16-1.34.26-2.09.38-.66.11-1.36.2-2.1.27-.68.06-1.38.17-2.12.2-.69.03-1.4,0-2.13,0-1.35,0-1.35.05-2.69.05s-1.35.03-2.69.03c-.8,0-1.53-.04-2.19-.08-.82-.06-1.51-.18-2.15-.28-.3-1.55-.03-1.57-.03-3.15,0-.69-.02-1.38,0-2.04.02-.7.12-1.38.17-2.03.05-.7.05-1.39.12-2.04.08-.71.2-1.38.3-2.01.12-.73.27-1.39.42-1.99.19-.76.36-1.43.58-1.95.39-.91.87-1.42,1.33-1.42.23-1.05.78-1.4,0-2.13-.85-.79-1.11-.26-2.31-.01-1.13.23-1.16,0-2.32,0s-1.16-.03-2.31-.03-1.16.01-2.31.01-1.46-.75-2.3.03c-.79.73-.26,1.09-.03,2.14.47,0,.9.52,1.29,1.44.22.52.45,1.16.63,1.92.14.6.27,1.27.38,2,.1.63.16,1.31.24,2.02.07.65.18,1.32.23,2.02.04.66.05,1.34.08,2.04.02.66.02,1.35.02,2.04,0,1.03.02,1.03.02,2.07s0,1.03,0,2.07-.03,1.03-.03,2.07-.01,1.03-.01,2.07.06,1.03.06,2.07c0,.69-.08,1.37-.1,2.04-.02.7-.05,1.38-.1,2.03-.05.7-.07,1.38-.14,2.03-.08.71-.12,1.39-.22,2.02-.12.73-.26,1.39-.4,2-.18.76-.44,1.39-.66,1.92-.39.92-.76,1.46-1.22,1.46-.23,1.01-.84,1.41-.07,2.11.86.77,1.19-.03,2.35-.03s1.16-.04,2.32-.04,1.16.05,2.31.05,1.16.01,2.31.01,1.45.75,2.31-.03c.77-.7.28-1.07.05-2.09-.47,0-1-.49-1.39-1.4-.22-.52-.4-1.19-.58-1.95-.15-.6-.25-1.28-.36-2-.1-.63-.27-1.3-.35-2.01-.07-.65-.12-1.33-.17-2.03-.05-.66-.1-1.34-.12-2.04-.02-.67.04-1.35.04-2.04,0-1.61-.34-1.64-.04-3.22.63-.11,1.37-.17,2.19-.21.66-.03,1.39-.06,2.19-.06,1.35,0,1.35-.02,2.69-.02s1.35.02,2.69.02c.72,0,1.43.05,2.12.08.73.03,1.44.06,2.12.12.74.07,1.44.2,2.1.3.75.11,1.44.2,2.07.35.29,1.29.04,1.32.04,2.64,0,.69-.08,1.37-.1,2.04-.02.7-.06,1.38-.11,2.03-.05.7-.03,1.39-.1,2.04-.08.71-.25,1.37-.36,2-.12.73-.23,1.4-.38,2-.19.76-.36,1.42-.58,1.95-.39.92-.86,1.42-1.33,1.42-.23,1.01-.78,1.41,0,2.1.86.77,1.18-.06,2.34-.06s1.16.01,2.32.01,1.16.02,2.31.02,1.16.04,2.31.04,1.48.78,2.34,0c.77-.7.24-1.1.01-2.12-.47,0-.99-.49-1.38-1.4Z"/>
</svg>