<?xml version="1.0" encoding="UTF-8"?>
<svg id="Calque_1" xmlns="http://www.w3.org/2000/svg" version="1.1" viewBox="0 0 688.86 54.03">
  <!-- Generator: Adobe Illustrator 29.1.0, SVG Export Plug-In . SVG Version: 2.1.0 Build 142)  -->
  <defs>
    <style>
      .st0 {
        fill: #8d4c52;
      }
    </style>
  </defs>
  <path class="st0" d="M15.1.41c.82,1.09.09,1.42-.18,2.77-.54,0-.89.59-1.35,1.58-.27.57-.52,1.29-.75,2.14-.18.67-.33,1.41-.48,2.22-.13.7-.38,1.43-.48,2.23-.1.72,0,1.5-.07,2.29-.07.73-.34,1.48-.39,2.26-.04.74-.05,1.51-.08,2.29-.02.75.09,1.51.09,2.29,0,1.01.05,1.01.05,2.02,0,1.01-.45,1.07-.19,2.04.55.09,1.26.03,1.92.09.56.06,1.16.17,1.81.19.58.03,1.18.11,1.83.11,1.13,0,1.13.07,2.25.07,1.13,0,1.13-.2,2.26-.2,1.13,0,1.13,0,2.26,0,.72,0,1.44.09,2.14.07.73-.03,1.44-.04,2.13-.09.73-.05,1.45-.02,2.14-.1.74-.09,1.44-.25,2.1-.37.74-.13,1.29-.36,1.93-.53.3-1.62.23-1.63.23-3.28,0-.77-.16-1.54-.18-2.28-.02-.78-.11-1.54-.16-2.28-.05-.78.09-1.56.02-2.29-.07-.79-.21-1.54-.3-2.26-.11-.8-.1-1.57-.24-2.28-.15-.81-.34-1.56-.52-2.23-.23-.85-.53-1.57-.8-2.14-.46-.98-.95-1.51-1.48-1.51-.26-1.34-.88-1.61-.06-2.7.63-.83,1-.05,2.04-.05,1.04,0,1.04.17,2.07.17,1.04,0,1.04-.24,2.08-.24,1.04,0,1.04,0,2.08,0,1.04,0,1.04.18,2.08.18,1.04,0,1.04.06,2.08.06,1.04,0,1.49-.99,2.12-.15.82,1.08.16,1.42-.1,2.76-.54,0-1.01.55-1.47,1.53-.27.57-.54,1.29-.77,2.14-.18.66-.26,1.43-.41,2.24-.13.7-.38,1.43-.48,2.23-.09.72-.16,1.48-.23,2.27-.06.73.1,1.51.05,2.29-.04.74-.29,1.49-.31,2.27-.02.75.03,1.51.03,2.28,0,1.1.11,1.1.11,2.2,0,1.1-.01,1.1-.01,2.2,0,1.1.06,1.1.06,2.2,0,1.1-.22,1.1-.22,2.2,0,1.1.17,1.1.17,2.21,0,1.1.04,1.1.04,2.2,0,.77-.08,1.53-.06,2.28.02.78-.1,1.55-.06,2.29.04.78.27,1.53.34,2.26.07.79.19,1.53.28,2.25.1.79.27,1.53.4,2.23.15.81.22,1.57.4,2.23.22.85.32,1.63.58,2.2.45.98,1.08,1.48,1.62,1.47.26,1.3.77,1.59-.04,2.63-.64.83-1-.01-2.03,0-1.04,0-1.04.08-2.07.08-1.04,0-1.04-.09-2.08-.09-1.04,0-1.04.07-2.08.07-1.04,0-1.04.1-2.08.1-1.04,0-1.04-.23-2.08-.23-1.04,0-1.38.9-2.02.08-.81-1.04-.22-1.29.04-2.59.54,0,.96-.56,1.42-1.55.27-.57.45-1.32.68-2.17.18-.67.47-1.38.62-2.19.13-.7.2-1.46.3-2.26.1-.72.15-1.48.23-2.27.07-.73.02-1.5.06-2.28.04-.74.31-1.49.34-2.27.02-.75-.18-1.51-.18-2.29,0-.85.11-.85.11-1.69,0-.85.37-.93.09-1.73-.64-.15-1.42-.37-2.17-.49-.67-.11-1.39-.06-2.13-.15-.68-.08-1.39-.11-2.12-.17-.69-.05-1.4-.18-2.12-.21-.7-.02-1.41.01-2.13.01-1.13,0-1.13.09-2.25.1-1.13,0-1.13-.06-2.26-.05-1.13,0-1.13.09-2.26.09-.65,0-1.26-.2-1.83-.19-.65.02-1.25.21-1.82.25-.66.05-1.16.06-1.71.16-.25,1-.21,1-.21,2.03,0,1.03.1,1.03.1,2.06,0,.78-.09,1.54-.07,2.29.02.78.13,1.54.18,2.28.05.78,0,1.56.07,2.29.07.79.32,1.53.42,2.25.11.8.06,1.58.19,2.28.15.81.42,1.54.6,2.21.23.85.58,1.52.85,2.1.46.98.9,1.57,1.43,1.56.26,1.3.89,1.68.08,2.72-.64.83-1.11-.06-2.15-.06-1.04,0-1.04.04-2.07.04-1.04,0-1.04-.1-2.08-.1-1.04,0-1.04.05-2.08.05-1.04,0-1.04-.02-2.08-.02-1.04,0-1.04-.07-2.08-.07-1.04,0-1.48.99-2.13.16-.81-1.04-.26-1.41,0-2.71.54,0,1.07-.55,1.52-1.54.26-.58.44-1.32.66-2.17.18-.67.53-1.37.68-2.18.13-.7.05-1.49.15-2.28.09-.72.3-1.46.37-2.25.07-.73.13-1.49.18-2.28.04-.74.02-1.51.04-2.28.02-.75.01-1.51.01-2.28q0-1.1,0-2.2c0-1.1.05-1.1.05-2.21,0-1.1.11-1.1.11-2.21q0-1.1,0-2.21c0-1.1-.03-1.11-.03-2.21,0-1.1-.21-1.11-.21-2.21,0-.78,0-1.54-.03-2.28-.02-.78.03-1.54,0-2.29-.04-.78-.05-1.55-.11-2.28-.07-.79-.14-1.55-.23-2.27-.1-.8-.28-1.54-.41-2.25-.15-.81-.3-1.56-.47-2.23-.22-.85-.55-1.53-.81-2.11-.45-.99-.9-1.57-1.44-1.57C.2,1.84-.41,1.45.41.37c.63-.84,1.12.05,2.16.05q1.04,0,2.07,0c1.04,0,1.04.14,2.08.14,1.04,0,1.04-.12,2.08-.12,1.04,0,1.04.11,2.08.11,1.04,0,1.08.21,2.09-.04,1.13-.28,1.49-.94,2.13-.1Z"/>
  <path class="st0" d="M70.02.61c.82,1.08.46,1.34.19,2.68-.54,0-1.05.58-1.51,1.56-.27.57-.51,1.27-.74,2.12-.18.66-.46,1.37-.61,2.18-.13.7-.27,1.45-.37,2.24-.1.72-.18,1.47-.25,2.26-.07.73-.18,1.49-.23,2.27-.04.74.01,1.5,0,2.28-.02.75-.09,1.51-.09,2.28q0,1.1,0,2.2c0,1.1.04,1.1.04,2.2,0,1.1-.13,1.1-.13,2.2,0,1.1.07,1.1.07,2.2,0,1.1.03,1.1.03,2.2,0,1.1.06,1.1.06,2.2,0,.77-.04,1.53-.02,2.28.02.78.17,1.53.21,2.27.05.78-.04,1.55.03,2.28.07.78.08,1.55.18,2.27.11.79.33,1.53.46,2.23.15.81.47,1.51.65,2.17.23.84.39,1.58.66,2.15.46.98,1,1.53,1.53,1.53.26,1.3.7,1.59-.11,2.63-.64.83-.99-.04-2.03-.04-1.04,0-1.04.16-2.07.17q-1.04,0-2.08,0c-1.04,0-1.04-.2-2.08-.19-1.04,0-1.04.16-2.08.16-1.04,0-1.04-.11-2.08-.11-1.04,0-1.51.96-2.16.13-.81-1.04-.25-1.43.02-2.73.54,0,1.11-.54,1.57-1.52.27-.57.54-1.29.76-2.14.18-.66.45-1.39.6-2.2.13-.7.07-1.48.18-2.28.1-.72.22-1.47.29-2.25.07-.73.09-1.49.14-2.27.04-.74.03-1.5.05-2.28.02-.75.06-1.5.06-2.28,0-1.1.11-1.1.11-2.2,0-1.1-.13-1.1-.13-2.2,0-1.1.03-1.1.03-2.2,0-1.1.19-1.1.19-2.2,0-1.1-.01-1.1-.01-2.2,0-1.1-.02-1.1-.02-2.2,0-.77-.16-1.53-.18-2.28-.02-.78-.12-1.53-.16-2.27-.05-.78-.11-1.54-.18-2.27-.07-.79-.13-1.54-.23-2.26-.11-.8,0-1.59-.13-2.29-.15-.81-.41-1.54-.59-2.2-.23-.85-.54-1.55-.81-2.12-.46-.98-.84-1.56-1.37-1.56-.26-1.34-.83-1.55-.01-2.63.63-.83.93-.19,1.96-.19,1.04,0,1.04-.03,2.07-.02,1.04,0,1.04.18,2.08.18,1.04,0,1.04-.12,2.08-.12,1.04,0,1.04-.06,2.08-.06,1.04,0,1.09.5,2.11.28,1.06-.23,1.32-.9,1.96-.06Z"/>
  <path class="st0" d="M123.98,3.41c.7,0,1.06-.3,1.31-.98.16-.43.34-1,.34-1.81,1.16-.38,1.45-.72,2.36.11.82.74.03,1.01.03,2.12,0,1.11.05,1.11.05,2.22,0,1.11-.05,1.11-.05,2.21q0,1.11,0,2.21c0,1.11.04,1.11.04,2.22,0,1.11.1,1.11.1,2.22,0,1.11,0,1.11,0,2.22,0,1.11-.2,1.11-.2,2.22,0,1.11.89,1.41.07,2.16-.91.83-1.22.44-2.4.11-.05-.71,0-1.49-.15-2.2-.14-.69-.57-1.32-.81-2.01-.23-.67-.42-1.36-.74-2.01-.31-.63-.66-1.26-1.06-1.86-.39-.59-.74-1.23-1.22-1.77-.46-.53-.97-1.05-1.51-1.53-.52-.46-1.22-.72-1.82-1.13-.57-.39-1.16-.78-1.8-1.11-.61-.32-1.26-.59-1.94-.85-.64-.25-1.3-.5-2-.69-.67-.18-1.32-.5-2.04-.62-.68-.11-1.4-.1-2.12-.16-.69-.05-1.39-.05-2.12-.05-.75,0-1.5-.14-2.22-.08-.75.06-1.49.2-2.2.33-.74.14-1.43.43-2.12.64-.71.22-1.36.58-2.02.88-.68.31-1.37.55-1.99.94-.62.4-1.15.92-1.71,1.4-.55.48-1.13.94-1.62,1.51-.47.55-1.02,1.07-1.43,1.71-.39.61-.74,1.28-1.07,1.97-.32.65-.44,1.41-.7,2.13-.25.68-.46,1.38-.65,2.13-.18.7-.51,1.39-.64,2.15-.13.71-.12,1.47-.2,2.24-.08.72-.18,1.46-.22,2.23-.04.73-.15,1.48-.15,2.24,0,.77.03,1.52.07,2.25.04.77.06,1.52.14,2.24.08.76.37,1.48.5,2.19.14.76.35,1.47.53,2.17.19.74.26,1.5.51,2.18.26.72.49,1.44.81,2.09.34.68.77,1.3,1.17,1.91.41.63,1.01,1.1,1.48,1.65.49.57.95,1.13,1.5,1.61.56.48,1.08,1.02,1.7,1.42.62.39,1.34.59,2.02.89.66.3,1.3.68,2.01.9.69.21,1.39.47,2.12.61.71.13,1.46.06,2.2.12.72.06,1.44.32,2.19.32.76,0,1.5-.1,2.2-.15.76-.05,1.47-.3,2.16-.4.76-.11,1.49-.16,2.17-.32.75-.18,1.43-.44,2.09-.68.73-.26,1.48-.38,2.09-.7.7-.36,1.19-.97,1.74-1.38.64-.48,1.19-.93,1.64-1.44.54-.61.9-1.24,1.18-1.84.37-.77.49-1.45.49-2.08,0-.08.2-.08.19-.16-.06-.8-.16-1.54-.26-2.22-.13-.8-.45-1.48-.65-2.13-.23-.79-.48-1.46-.81-2.04-.4-.7-.78-1.31-1.32-1.74-.57-.46-1.2-.86-1.93-1.06-.66-.18-1.32-.22-2.1-.22-.38-1.27-1.05-1.71-.19-2.71.74-.87,1.23.22,2.37.22,1.13,0,1.13-.15,2.26-.15,1.13,0,1.13.04,2.26.04,1.13,0,1.13-.11,2.27-.11,1.13,0,1.13.17,2.27.17,1.13,0,1.13-.07,2.27-.07,1.14,0,1.14-.06,2.27-.06,1.14,0,1.47-.78,2.22.08.86,1,.48,1.34.15,2.62-.68,0-1.42.31-1.97,1.12-.34.51-.67,1.19-.93,2.1-.18.64-.28,1.4-.42,2.27-.1.69-.23,1.45-.3,2.29-.06.71-.18,1.48-.21,2.3-.02.72-.07,1.5-.07,2.32,0,.48-.19,1.18-.77,2.03-.36.53-.88,1.06-1.5,1.66-.49.48-1.02,1-1.68,1.48-.56.41-1.19.8-1.89,1.2-.61.35-1.21.83-1.93,1.15-.65.29-1.39.46-2.13.72-.67.24-1.39.44-2.14.65-.69.19-1.43.28-2.19.43-.71.14-1.4.48-2.17.59-.72.1-1.47.11-2.24.18-.72.07-1.46.18-2.23.21-.73.03-1.48-.03-2.25-.03-.72,0-1.44,0-2.14-.03-.72-.03-1.43-.16-2.12-.23-.72-.07-1.42-.18-2.11-.29-.71-.11-1.45-.06-2.13-.21-.71-.16-1.41-.3-2.08-.5-.69-.21-1.32-.59-1.97-.85-.67-.27-1.34-.51-1.97-.83-.64-.33-1.19-.8-1.78-1.18-.6-.39-1.2-.77-1.75-1.21-.55-.45-1.16-.84-1.66-1.35-.5-.51-.96-1.06-1.4-1.63-.44-.56-.72-1.23-1.11-1.84-.37-.6-.84-1.15-1.16-1.81-.31-.63-.59-1.29-.86-1.98-.25-.66-.53-1.33-.74-2.04-.2-.67-.29-1.39-.44-2.12-.15-.69-.23-1.4-.34-2.13-.1-.7-.37-1.39-.44-2.13-.07-.7.07-1.44.04-2.18-.03-.71-.09-1.42-.09-2.16,0-.74-.08-1.47-.05-2.17.03-.74.11-1.46.18-2.16.07-.74.13-1.46.23-2.16.11-.73.33-1.43.48-2.12.16-.73.33-1.42.53-2.1.21-.71.26-1.46.51-2.11.26-.69.64-1.32.95-1.95.32-.66.58-1.35.95-1.95.39-.62.84-1.19,1.28-1.75.45-.57,1.04-1,1.54-1.51.51-.51.9-1.15,1.45-1.6.56-.45,1.24-.72,1.85-1.11.6-.38,1.19-.79,1.83-1.11.63-.32,1.31-.53,1.98-.79.65-.26,1.3-.58,1.99-.79.67-.2,1.36-.41,2.06-.57.68-.15,1.42-.1,2.13-.2.69-.11,1.38-.28,2.1-.35.7-.07,1.41-.16,2.13-.19.7-.03,1.41-.12,2.14-.11.78,0,1.54.01,2.26.05.78.04,1.52.24,2.24.31.78.08,1.52.25,2.23.35.78.12,1.57-.01,2.27.13.79.16,1.48.53,2.16.7.79.2,1.55.28,2.21.47.82.24,1.5.58,2.13.76.91.26,1.64.37,2.21.37Z"/>
  <path class="st0" d="M157.09.65c.82,1.08.2,1.4-.07,2.73-.54,0-1.05.53-1.51,1.51-.27.57-.58,1.28-.81,2.12-.18.66-.17,1.44-.32,2.24-.13.7-.42,1.42-.52,2.21-.1.72-.16,1.47-.24,2.25-.07.73-.01,1.49-.06,2.27-.04.74-.01,1.49-.04,2.27-.02.74-.2,1.5-.2,2.26,0,1,.09,1,.09,2,0,1-.3,1.04-.04,2,.55.09,1.16.28,1.82.35.57.06,1.19-.11,1.84-.08.58.02,1.18.16,1.83.16,1.13,0,1.13-.05,2.25-.05,1.13,0,1.13,0,2.26,0,1.13,0,1.13.09,2.26.09.72,0,1.44.03,2.14,0,.73-.03,1.44-.1,2.13-.15.73-.05,1.45-.1,2.13-.18.74-.09,1.43-.26,2.1-.38.74-.13,1.31-.32,1.95-.49.3-1.61.24-1.61.24-3.25,0-.77-.11-1.53-.13-2.27-.02-.77-.03-1.53-.07-2.27-.05-.78-.18-1.53-.25-2.25-.07-.78-.11-1.54-.2-2.25-.11-.79-.26-1.53-.39-2.23-.15-.81-.26-1.56-.44-2.22-.23-.84-.64-1.49-.91-2.05-.46-.97-.99-1.54-1.53-1.54-.26-1.33-.76-1.73.06-2.8.63-.83,1.11-.01,2.15,0,1.04,0,1.04.16,2.07.16,1.04,0,1.04,0,2.08,0,1.04,0,1.04-.01,2.08-.01,1.04,0,1.04-.19,2.08-.19,1.04,0,1.04.01,2.08.01,1.04,0,1.34-.64,1.98.19.82,1.07.34,1.3.07,2.63-.54,0-1.04.54-1.5,1.51-.26.57-.57,1.28-.79,2.12-.18.66-.12,1.44-.27,2.25-.13.7-.26,1.43-.36,2.22-.09.71-.29,1.45-.36,2.23-.06.73-.16,1.48-.2,2.25-.04.73.09,1.49.07,2.26-.02.74-.13,1.49-.13,2.26,0,1.09-.15,1.09-.15,2.18,0,1.09.06,1.09.06,2.18,0,1.09.1,1.09.1,2.18,0,1.09,0,1.09,0,2.18,0,1.09-.1,1.09-.1,2.19,0,1.09.14,1.09.14,2.19,0,.77-.16,1.53-.14,2.26.02.77.04,1.53.08,2.26.04.77.26,1.52.32,2.24.07.78.19,1.52.29,2.23.1.79,0,1.57.13,2.27.15.8.53,1.49.7,2.15.22.84.29,1.62.55,2.19.45.98.91,1.51,1.45,1.51.26,1.29.89,1.54.08,2.57-.64.82-.99-.05-2.02-.04-1.04,0-1.04-.03-2.07-.03-1.04,0-1.04.16-2.08.16-1.04,0-1.04.07-2.08.07-1.04,0-1.04-.11-2.08-.11-1.04,0-1.04.13-2.08.13-1.04,0-1.39.67-2.04-.15-.81-1.03-.43-1.34-.17-2.63.54,0,1.07-.57,1.53-1.55.27-.57.64-1.23.87-2.07.18-.66.31-1.41.46-2.21.13-.7.35-1.43.46-2.22.1-.71.21-1.47.28-2.25.07-.73.07-1.49.12-2.26.04-.74.07-1.49.09-2.26.02-.74-.04-1.5-.04-2.27,0-.84-.04-.84-.04-1.68,0-.84.41-.92.13-1.71-.64-.15-1.41-.31-2.16-.43-.67-.11-1.38-.13-2.12-.21-.68-.08-1.39-.18-2.12-.24-.69-.05-1.4-.06-2.13-.08-.7-.02-1.41-.13-2.13-.13-1.13,0-1.13.09-2.25.09-1.13,0-1.13-.05-2.26-.05-1.13,0-1.13-.1-2.26-.1-.65,0-1.26.19-1.83.21-.65.02-1.26-.03-1.83.01-.66.05-1.14.18-1.69.27-.25.99,0,.99,0,2.01,0,1.02-.2,1.02-.2,2.04,0,.77,0,1.53.02,2.27.02.77.12,1.53.16,2.27.05.78.17,1.53.24,2.25.07.78,0,1.55.1,2.27.11.79.3,1.53.43,2.23.15.8.48,1.5.66,2.16.23.84.48,1.53.75,2.1.46.97.85,1.57,1.38,1.57.26,1.29.74,1.54-.07,2.57-.64.82-.96.02-1.99.02-1.04,0-1.04-.06-2.07-.05-1.04,0-1.04.06-2.08.06-1.04,0-1.04.05-2.08.05-1.04,0-1.04.12-2.08.13-1.04,0-1.04-.12-2.08-.12-1.04,0-1.34.75-1.98-.07-.81-1.03-.38-1.28-.12-2.57.54,0,1.07-.54,1.53-1.52.26-.57.57-1.28.79-2.12.18-.66.24-1.42.38-2.23.13-.7.36-1.43.46-2.22.09-.72.21-1.47.28-2.25.07-.73,0-1.49.05-2.27.04-.74.11-1.49.13-2.26.02-.74.14-1.5.14-2.27,0-1.09-.1-1.09-.1-2.18,0-1.09-.14-1.09-.14-2.19,0-1.09.17-1.09.17-2.19,0-1.09.02-1.09.02-2.19,0-1.1-.11-1.1-.11-2.19,0-1.1-.1-1.1-.1-2.19,0-.77.23-1.53.21-2.27-.02-.77-.15-1.53-.19-2.26-.04-.78-.18-1.53-.25-2.25-.07-.78.01-1.55-.08-2.27-.1-.79-.39-1.51-.51-2.21-.15-.81-.23-1.56-.41-2.22-.22-.84-.38-1.6-.65-2.17-.45-.98-1.14-1.46-1.68-1.46-.26-1.34-.78-1.69.04-2.76.63-.83,1.07,0,2.1,0,1.04,0,1.04.09,2.07.09,1.04,0,1.04-.13,2.08-.13,1.04,0,1.04.17,2.08.17,1.04,0,1.04.03,2.08.03,1.04,0,1.05.03,2.06-.21,1.11-.26,1.49-.76,2.13.08Z"/>
  <path class="st0" d="M257.85.93c.74,0,1.49-.1,2.19.04.72.15,1.41.45,2.08.73.67.28,1.34.6,1.95,1.01.6.41,1.07.99,1.6,1.5.52.51,1.17.92,1.6,1.51.42.59.79,1.24,1.12,1.9.32.65.57,1.35.79,2.06.22.69.34,1.42.45,2.16.11.71.12,1.44.12,2.19,0,.99.1.99.1,1.99,0,.78-.16,1.53-.28,2.27-.13.76-.23,1.53-.49,2.24-.27.71-.7,1.35-1.11,2-.4.63-.74,1.34-1.28,1.91-.51.53-1.2.91-1.84,1.37-.59.43-1.18.94-1.89,1.29-.65.33-1.38.59-2.13.85-.69.24-1.44.36-2.22.54-.71.16-1.46.28-2.25.39-.72.1-1.48.1-2.27.15-.73.04-1.49.23-2.28.23-1.18,0-1.18.01-2.36.01-1.18,0-1.18-.02-2.36-.02-1.18,0-1.18-.16-2.36-.16-1.18,0-1.18.02-2.36.02-1.18,0-1.18.25-2.37.25-1.18,0-1.54-.99-2.41-.18-.8.74,0,1.14,0,2.24,0,1.1-.04,1.1-.04,2.19,0,.77.12,1.52.14,2.26.02.77.17,1.51.22,2.25.05.77-.05,1.53.02,2.26.07.78.31,1.5.41,2.22.11.79.05,1.56.19,2.25.15.8.36,1.53.54,2.19.23.84.48,1.55.75,2.11.46.97.84,1.54,1.37,1.54.26,1.29.93,1.55.11,2.58-.65.82-1.02-.04-2.06-.04-1.04,0-1.04-.02-2.08-.02-1.04,0-1.04.17-2.09.17-1.04,0-1.04-.08-2.09-.08-1.04,0-1.04.05-2.09.05-1.05,0-1.05-.18-2.09-.18-1.04,0-1.5,1-2.15.18-.82-1.03-.27-1.41,0-2.69.55,0,1.18-.5,1.64-1.46.27-.57.35-1.34.58-2.18.18-.66.38-1.38.53-2.18.13-.69.44-1.41.54-2.2.09-.71.06-1.48.13-2.26.07-.73.23-1.47.27-2.24.04-.73-.07-1.49-.04-2.26.02-.74.08-1.49.08-2.26,0-1.09-.13-1.09-.13-2.17,0-1.09.23-1.09.23-2.18,0-1.09.03-1.09.03-2.18,0-1.09-.09-1.09-.09-2.18,0-1.09.09-1.09.09-2.18,0-1.09-.22-1.09-.22-2.18,0-.77-.03-1.52-.05-2.26-.02-.77-.06-1.52-.1-2.26-.04-.77.04-1.54-.03-2.26-.07-.78-.28-1.51-.37-2.23-.1-.79-.24-1.53-.37-2.22-.15-.8-.22-1.56-.4-2.22-.23-.84-.57-1.5-.85-2.06-.46-.96-.97-1.53-1.53-1.53-.27-1.33-.76-1.7.1-2.75.71-.86,1.13.06,2.24.06,1.11,0,1.11-.13,2.22-.13q1.11,0,2.22,0c1.11,0,1.11.22,2.22.22,1.11,0,1.11-.16,2.22-.16,1.11,0,1.11.01,2.22.02,1.11,0,1.11-.1,2.22-.09,1.11,0,1.11.07,2.22.07,1.11,0,1.11.09,2.22.09,1.11,0,1.11.05,2.23.05,1.11,0,1.11.06,2.23.06,1.11,0,1.11-.22,2.23-.22q1.12,0,2.23.04c1.12.03,1.11.15,2.23.15ZM237.57,25c.72.76,1.11-.15,2.16-.15,1.04,0,1.04.08,2.08.08,1.04,0,1.04-.04,2.08-.04,1.04,0,1.04.16,2.09.16,1.04,0,1.04-.22,2.09-.22,1.04,0,1.04.02,2.09.02,1.05,0,1.04.03,2.09.03,1.05,0,1.05.05,2.09.05.75,0,1.49-.07,2.17-.29.7-.22,1.32-.63,1.93-1.04.6-.41,1.21-.83,1.7-1.39.47-.55.79-1.22,1.13-1.88.32-.64.68-1.3.85-2.03.16-.7.08-1.44.08-2.2,0-1.07.16-1.07.16-2.15,0-.75-.22-1.46-.38-2.16-.17-.73-.38-1.42-.71-2.06-.33-.67-.67-1.33-1.14-1.88-.48-.56-1.03-1.08-1.63-1.48-.61-.41-1.26-.81-1.96-1.03-.69-.22-1.45-.18-2.2-.18-1.04,0-1.04,0-2.08,0-1.04,0-1.04-.02-2.08-.02-1.04,0-1.04-.16-2.08-.16-1.04,0-1.04.02-2.09.02-1.04,0-1.04.24-2.09.24-1.04,0-1.04-.2-2.09-.2-1.05,0-1.05.01-2.09.01-1.05,0-1.43-.78-2.16-.02-.76.8.08,1.16.08,2.27,0,1.1.12,1.1.12,2.2,0,1.1-.15,1.1-.15,2.2,0,1.1.15,1.1.15,2.2,0,1.1-.17,1.1-.17,2.2,0,1.1.04,1.1.04,2.2q0,1.1,0,2.2c0,1.1.11,1.1-.13,2.18-.27,1.18-.69,1.51.07,2.31Z"/>
  <path class="st0" d="M309.7.88c.74,0,1.46.12,2.17.27.72.15,1.47.22,2.14.51.67.28,1.27.74,1.88,1.15.6.41,1.16.88,1.69,1.4.52.5,1.05,1.02,1.49,1.62.43.58.66,1.3.99,1.96.32.65.79,1.25,1.01,1.95.22.69.36,1.42.47,2.15.11.71-.04,1.45-.04,2.2,0,.99.03.99.03,1.98,0,.78.15,1.57.02,2.32-.13.77-.33,1.54-.61,2.25-.28.71-.69,1.39-1.12,2.04-.41.63-1.05,1.1-1.6,1.66-.52.53-.99,1.15-1.65,1.61-.61.42-1.32.73-2.04,1.09-.66.32-1.39.66-2.15.92.17,1.07.67.88,1.22,1.82.55.94.39,1.03.94,1.97.55.94.63.89,1.18,1.83.37.62.76,1.22,1.12,1.82.37.62.72,1.25,1.08,1.85.38.62.65,1.3,1.02,1.89.39.62.81,1.2,1.19,1.78.4.62.88,1.15,1.26,1.73.41.62.67,1.31,1.05,1.87.43.62,1.05,1.05,1.44,1.59.46.62.86,1.2,1.27,1.7.52.63.99,1.14,1.43,1.56.73.7,1.2,1.17,1.65,1.17.22,1.29.96,1.65.15,2.68-.64.81-1.12-.03-2.15-.03-1.03,0-1.03.07-2.05.07-1.03,0-1.03-.24-2.06-.24-1.03,0-1.03.08-2.06.08-1.03,0-1.03.15-2.06.15-1.03,0-1.03.04-2.06.04-1.03,0-1.03-.23-2.06-.23-1.03,0-1.37.87-2.01.06-.81-1.03-.44-1.32-.16-2.6.57,0,1.1-.61,1.1-1.8,0-.63-.14-1.41-.32-2.3-.14-.69-.41-1.42-.65-2.23-.21-.69-.46-1.42-.75-2.2-.26-.69-.53-1.41-.86-2.16-.3-.68-.61-1.4-.97-2.12-.33-.68-.64-1.4-1.02-2.1-.36-.67-.87-1.27-1.28-1.96-.65-1.11-.49-1.2-1.14-2.31-.65-1.11-.56-1.17-1.31-2.22-.29,0-.61-.02-.89-.02-1.18,0-1.18,0-2.36,0-1.18,0-1.18.06-2.36.06-1.18,0-1.18.2-2.36.2-1.18,0-1.18-.04-2.36-.04-1.18,0-1.18-.01-2.37-.01-1.18,0-1.53-.92-2.4-.12-.8.74,0,1.13-.01,2.22,0,1.09-.02,1.09-.02,2.18,0,.76.11,1.52.13,2.25.02.77.09,1.52.13,2.25.04.77.11,1.52.18,2.24.07.78-.06,1.55.04,2.26.1.79.37,1.51.5,2.2.15.8.3,1.54.48,2.19.23.83.52,1.53.79,2.09.46.95,1.01,1.49,1.56,1.49.27,1.28.67,1.55-.14,2.58-.65.82-.97.15-2.01.15-1.04,0-1.04-.05-2.08-.05-1.04,0-1.04-.15-2.09-.15-1.04,0-1.04.18-2.09.18-1.04,0-1.04-.16-2.09-.16-1.05,0-1.05.2-2.09.2-1.05,0-1.47.74-2.12-.08-.82-1.02-.27-1.37,0-2.66.54,0,1.18-.49,1.64-1.46.27-.57.38-1.34.61-2.17.18-.66.34-1.39.49-2.18.13-.69.36-1.42.46-2.2.1-.71.03-1.47.1-2.25.07-.72.31-1.46.36-2.23.04-.73-.15-1.49-.13-2.26.02-.74.16-1.48.16-2.25,0-1.09.08-1.08.08-2.17,0-1.09-.05-1.08-.05-2.17,0-1.09-.05-1.08-.05-2.17,0-1.09.16-1.09.16-2.17,0-1.09-.15-1.09-.14-2.17,0-1.09.1-1.09.1-2.17,0-.76-.08-1.52-.1-2.25-.02-.77.06-1.53.02-2.26-.05-.77-.27-1.51-.33-2.23-.07-.78-.25-1.51-.34-2.22-.11-.79-.07-1.55-.2-2.24-.15-.8-.27-1.55-.45-2.21-.23-.83-.56-1.53-.82-2.09-.46-.97-.99-1.5-1.53-1.5-.26-1.32-.91-1.71-.05-2.75.71-.86,1.16.13,2.27.13,1.11,0,1.11-.03,2.22-.03,1.11,0,1.11-.06,2.22-.06,1.11,0,1.11-.09,2.22-.09,1.11,0,1.11.02,2.22.03,1.11,0,1.11.15,2.22.15,1.11,0,1.11-.16,2.22-.16,1.11,0,1.11.06,2.22.06,1.11,0,1.11,0,2.22.01,1.11,0,1.11-.02,2.23-.02,1.11,0,1.11.05,2.23.05,1.11,0,1.11.07,2.23.07,1.11,0,1.11-.15,2.23-.16,1.12,0,1.12.07,2.23.07ZM289.51,24.92c.72.76,1.03.04,2.07.04,1.04,0,1.04-.15,2.08-.15,1.04,0,1.04.11,2.08.11,1.04,0,1.04.02,2.09.02,1.04,0,1.04-.07,2.09-.07,1.04,0,1.04.17,2.09.17,1.05,0,1.05-.2,2.09-.2,1.05,0,1.05.03,2.09.03.75,0,1.51.09,2.2-.13.7-.22,1.38-.59,1.99-1,.6-.4,1.01-1.06,1.49-1.62.47-.55.85-1.14,1.18-1.81.32-.64.63-1.29.8-2.02.16-.7.45-1.41.45-2.16,0-1.07-.18-1.07-.18-2.14,0-.75,0-1.49-.16-2.19-.17-.73-.44-1.42-.76-2.07-.33-.66-.85-1.2-1.33-1.74-.48-.56-.91-1.19-1.51-1.59-.61-.41-1.32-.66-2.02-.88-.69-.21-1.41-.3-2.16-.3-1.04,0-1.04-.03-2.08-.03-1.04,0-1.04-.13-2.08-.13-1.04,0-1.04.05-2.08.05-1.04,0-1.04.12-2.09.11-1.04,0-1.04-.17-2.09-.18-1.04,0-1.04.25-2.09.25-1.05,0-1.05-.04-2.09-.04-1.05,0-1.29-.78-2.01-.03-.76.79-.13,1.02-.13,2.12,0,1.1.18,1.1.18,2.2,0,1.1-.08,1.1-.08,2.19,0,1.1.07,1.1.07,2.19,0,1.1-.24,1.1-.24,2.2,0,1.1.08,1.1.08,2.2,0,1.1.15,1.1.15,2.2,0,1.1.26,1.15.04,2.23-.23,1.14-.87,1.36-.12,2.16Z"/>
  <path class="st0" d="M353.28.97c.82,1.06.16,1.35-.11,2.67-.54,0-1.04.51-1.5,1.48-.27.56-.46,1.31-.69,2.14-.18.65-.38,1.38-.53,2.17-.13.69-.17,1.44-.27,2.22-.1.71-.2,1.45-.28,2.22-.07.72-.17,1.46-.22,2.23-.04.73.09,1.48.07,2.25-.02.73-.14,1.48-.14,2.24,0,1.08.09,1.08.09,2.16,0,1.08-.04,1.08-.04,2.16,0,1.08-.03,1.08-.03,2.16,0,1.08,0,1.08,0,2.16q0,1.08,0,2.17c0,1.08.05,1.08.05,2.17,0,.76-.15,1.51-.13,2.25.02.76.05,1.52.09,2.24.05.77.23,1.51.3,2.23.07.77,0,1.53.1,2.24.11.78.46,1.48.59,2.17.15.8.2,1.55.38,2.2.23.83.44,1.56.71,2.12.46.96.96,1.49,1.5,1.49.26,1.28.95,1.64.14,2.67-.64.81-1.12,0-2.15,0-1.04,0-1.04-.19-2.07-.18-1.04,0-1.04.07-2.08.07-1.04,0-1.04.11-2.08.11-1.04,0-1.04-.06-2.08-.05-1.04,0-1.04.07-2.08.07-1.04,0-1.53.83-2.18.02-.81-1.02-.04-1.39.22-2.67.54,0,.82-.62,1.28-1.58.27-.56.75-1.19.98-2.02.18-.65.22-1.42.37-2.21.13-.69.25-1.43.35-2.21.1-.71.27-1.44.34-2.21.07-.72.19-1.46.24-2.23.04-.73-.17-1.49-.14-2.25.02-.73.04-1.48.04-2.24,0-1.08.14-1.08.14-2.16,0-1.08-.16-1.08-.16-2.16,0-1.08.18-1.08.18-2.16,0-1.08-.07-1.08-.07-2.16,0-1.08.02-1.08.02-2.17,0-1.08.06-1.08.06-2.17,0-.76-.2-1.51-.22-2.24-.02-.77,0-1.51-.04-2.24-.05-.77.03-1.53-.04-2.25-.07-.77-.13-1.52-.23-2.23-.11-.78-.38-1.5-.51-2.19-.15-.8-.19-1.56-.37-2.21-.23-.83-.66-1.47-.93-2.03-.46-.96-.79-1.56-1.33-1.56-.26-1.32-.94-1.64-.12-2.71.63-.82,1.08.12,2.11.12,1.04,0,1.04-.13,2.07-.13,1.04,0,1.04.19,2.08.19,1.04,0,1.04-.04,2.08-.04,1.04,0,1.04-.11,2.08-.11,1.04,0,1.06.23,2.07,0,1.1-.26,1.45-.8,2.09.03Z"/>
  <path class="st0" d="M406.77,1.09c.76.74.12,1.02.12,2.07,0,1.06.02,1.05.02,2.11,0,1.05-.21,1.05-.21,2.11,0,1.05.2,1.05.2,2.11,0,1.06-.04,1.06-.05,2.11,0,1.06-.09,1.06-.09,2.11,0,1.06.02,1.06.02,2.11,0,1.06.06,1.06.06,2.12,0,1.06.83,1.5.03,2.2-.92.8-1.35.28-2.52-.06,0-.71-.18-1.43-.29-2.15-.11-.7-.1-1.44-.31-2.13-.21-.68-.49-1.35-.8-2.01-.3-.65-.66-1.28-1.06-1.88-.39-.6-.87-1.14-1.36-1.68-.48-.53-.92-1.12-1.48-1.58-.55-.45-1.23-.73-1.86-1.11-.61-.36-1.21-.77-1.89-1.05-.65-.27-1.32-.57-2.04-.75-.68-.17-1.43-.09-2.16-.18-.69-.08-1.4-.3-2.15-.3-1.02,0-1.02.12-2.04.12-1.02,0-1.02,0-2.04,0-1.02,0-1.02-.04-2.04-.04-1.02,0-1.02-.11-2.04-.11-1.02,0-1.02.04-2.05.03-1.02,0-1.02-.02-2.05-.02-1.02,0-1.41-.77-2.12-.03-.73.75.19,1.12.19,2.17,0,1.05-.11,1.05-.11,2.1,0,1.05.01,1.05.01,2.09,0,1.05-.02,1.05-.02,2.1,0,1.05.13,1.05.13,2.1,0,1.05-.18,1.05-.18,2.1,0,1.05-.01,1.05-.01,2.1,0,1.05.03,1.05.03,2.1,0,1.05-.19,1.07.16,2.06.75-.01,1.35-.13,2.07-.18.75-.04,1.49-.05,2.19-.12.76-.08,1.49-.12,2.18-.23.76-.12,1.51-.15,2.18-.3.78-.17,1.44-.52,2.08-.73.8-.26,1.53-.43,2.06-.74.84-.5,1.26-1.19,1.26-1.77,1.15-.28,1.46-.65,2.36.13.77.66.04.98.04,2,0,1.02.09,1.02.09,2.04,0,1.02.03,1.02.03,2.04,0,1.02-.08,1.02-.07,2.04,0,1.02-.09,1.02-.09,2.04,0,1.02.84,1.41.07,2.07-.9.77-1.26.29-2.41.01,0-.57-.48-1.14-1.34-1.64-.53-.3-1.18-.66-1.98-.92-.63-.2-1.34-.44-2.11-.61-.67-.15-1.41-.16-2.18-.28-.69-.11-1.41-.27-2.17-.34-.7-.07-1.44-.11-2.19-.15-.71-.04-1.31,0-2.06,0-.36,1.08-.01,1.09-.01,2.23,0,1.14-.02,1.14-.02,2.27,0,1.13-.2,1.13-.2,2.27,0,1.14.12,1.14.12,2.27,0,1.14-.08,1.14-.08,2.27,0,1.14-.08,1.14-.08,2.27,0,1.14.17,1.14.17,2.27,0,1.14-.17,1.14-.17,2.28,0,1.14-.7,1.49.08,2.33.71.77,1.11,0,2.15,0,1.04,0,1.04-.19,2.09-.19,1.05,0,1.05.11,2.09.11,1.05,0,1.05.03,2.09.03,1.05,0,1.05.03,2.1.03,1.05,0,1.05,0,2.1,0,1.05,0,1.05.04,2.1.04,1.05,0,1.05-.14,2.1-.14.76,0,1.49-.03,2.19-.12.75-.1,1.47-.23,2.16-.42.72-.2,1.44-.4,2.09-.69.68-.3,1.35-.64,1.95-1.03.62-.4,1.09-.99,1.64-1.47.55-.49,1.03-1.02,1.5-1.58.48-.56.99-1.08,1.38-1.69.39-.62.67-1.3.97-1.96.31-.67.59-1.33.8-2.03.21-.71.57-1.38.68-2.1.11-.73.06-1.41.06-2.12,1.14-.34,1.54-.94,2.41-.15.8.73-.07,1.15-.07,2.23,0,1.08.1,1.08.1,2.16,0,1.08-.2,1.08-.2,2.16,0,1.08.07,1.08.07,2.16,0,1.08-.01,1.08-.01,2.16,0,1.08.1,1.08.1,2.16,0,1.08.03,1.08.03,2.16,0,1.08-.06,1.08-.06,2.17,0,1.08.86,1.5.09,2.27-.76.76-1.18-.05-2.26-.04-1.08,0-1.08-.12-2.16-.11-1.08,0-1.08.07-2.16.07-1.08,0-1.08.13-2.16.13-1.08,0-1.08-.03-2.16-.03-1.08,0-1.08-.05-2.16-.05-1.08,0-1.08-.05-2.17-.04-1.08,0-1.08,0-2.16,0-1.08,0-1.08.09-2.17.1-1.08,0-1.08-.01-2.16-.01-1.08,0-1.08-.13-2.17-.12-1.08,0-1.08-.07-2.16-.06-1.08,0-1.08.08-2.17.08-1.08,0-1.08-.02-2.17-.01q-1.08,0-2.16,0c-1.08,0-1.08,0-2.17.01-1.08,0-1.08.19-2.17.19-1.08,0-1.08-.1-2.17-.1q-1.08,0-2.17,0c-1.09,0-1.09-.01-2.17-.01-1.09,0-1.5.85-2.2.01-.83-1-.36-1.38-.09-2.66.55,0,1.07-.56,1.53-1.52.27-.56.61-1.22.84-2.06.18-.65.38-1.38.53-2.17.13-.69.14-1.44.24-2.22.09-.71.38-1.43.45-2.2.07-.72-.08-1.48-.03-2.25.04-.73.2-1.47.22-2.23.02-.73-.05-1.48-.05-2.24,0-1.08-.08-1.08-.08-2.16,0-1.08.05-1.08.05-2.16,0-1.08.02-1.08.02-2.16,0-1.08.17-1.08.17-2.16,0-1.08-.24-1.08-.24-2.16,0-1.08.04-1.08.04-2.16,0-.76.19-1.51.17-2.25-.02-.77-.24-1.51-.28-2.23-.04-.77.06-1.53-.01-2.25-.07-.77-.07-1.53-.17-2.24-.1-.78-.27-1.52-.4-2.21-.15-.8-.35-1.53-.53-2.18-.23-.83-.61-1.49-.88-2.05-.46-.95-.8-1.53-1.36-1.53-.27-1.32-1-1.66-.16-2.71.67-.84,1.13-.02,2.21-.02,1.08,0,1.08.06,2.15.06,1.08,0,1.08-.11,2.15-.11,1.08,0,1.08.2,2.15.2,1.08,0,1.08-.05,2.15-.05q1.08,0,2.15,0c1.08,0,1.08.1,2.15.1,1.08,0,1.08-.1,2.15-.1,1.08,0,1.08-.12,2.15-.12,1.08,0,1.08.1,2.16.1,1.08,0,1.08-.01,2.15-.01,1.08,0,1.08-.01,2.16-.01,1.08,0,1.08-.05,2.16-.05,1.08,0,1.08.04,2.15.04,1.08,0,1.08.02,2.15.03,1.08,0,1.08-.02,2.16-.01,1.08,0,1.08-.05,2.16-.05,1.08,0,1.08.07,2.16.07,1.08,0,1.11.27,2.16.06,1.11-.22,1.35-.73,2.12.02Z"/>
  <path class="st0" d="M459.71,3.84c.61,0,.8-.28.96-1.05.09-.42.23-1.05.23-1.77,1.17-.34,1.59-.73,2.52.07.8.69.04,1.1.04,2.15,0,1.05.02,1.05.02,2.11,0,1.05.03,1.06.03,2.11,0,1.06-.18,1.06-.18,2.11,0,1.06,0,1.06,0,2.11,0,1.06.16,1.06.16,2.11,0,1.06-.24,1.06-.24,2.12,0,1.06.84,1.32.04,2.01-.92.8-1.15.34-2.33,0-.06-.74-.06-1.38-.21-2.07-.16-.72-.53-1.38-.79-2.04-.27-.68-.5-1.38-.88-2-.38-.62-.86-1.17-1.35-1.72-.48-.53-.94-1.13-1.52-1.59-.56-.44-1.23-.78-1.88-1.14-.62-.34-1.32-.57-2.02-.84-.66-.26-1.3-.65-2.03-.84-.68-.18-1.45-.07-2.2-.19-.7-.11-1.41-.24-2.16-.3-.71-.05-1.43-.01-2.19-.01-.81,0-1.58-.17-2.3-.14-.82.04-1.57.2-2.29.28-.82.09-1.6.03-2.3.16-.82.16-1.56.39-2.23.61-.81.27-1.49.62-2.09.96-.73.43-1.34.89-1.8,1.42-.52.6-.82,1.31-1.05,2.02-.22.71-.33,1.46-.33,2.25,0,.75.06,1.49.37,2.12.3.61.9,1.07,1.45,1.6.48.46,1.05.88,1.7,1.29.57.36,1.22.66,1.9.99.62.3,1.25.64,1.94.93.64.26,1.3.54,2,.8.66.24,1.36.41,2.05.65.67.23,1.26.71,1.95.94.67.22,1.44.19,2.13.41.68.22,1.35.49,2.03.72.68.23,1.32.57,2,.82.68.24,1.39.39,2.06.65.67.26,1.31.61,1.97.89.67.29,1.35.54,1.98.85.65.32,1.29.66,1.9,1.01.63.36,1.3.67,1.88,1.07.6.41,1.02,1.05,1.55,1.51.55.47,1.22.82,1.69,1.34.48.54.78,1.21,1.15,1.81.37.6.88,1.15,1.14,1.83.25.65.31,1.38.44,2.11.12.68.29,1.39.29,2.13,0,.75-.25,1.45-.32,2.13-.08.74-.22,1.43-.39,2.09-.19.72-.2,1.47-.49,2.1-.31.66-.76,1.25-1.19,1.81-.43.57-.94,1.09-1.48,1.57-.53.46-1.15.82-1.78,1.21-.59.36-1.23.68-1.92.97-.64.27-1.26.67-1.98.89-.66.2-1.39.28-2.12.44-.68.14-1.39.24-2.13.35-.69.1-1.39.31-2.13.38-.69.07-1.42.13-2.16.17-.7.04-1.42.05-2.16.07-.7.02-1.43-.11-2.16-.11-.78,0-1.54.06-2.27.03-.78-.04-1.53-.21-2.25-.28-.79-.07-1.54-.1-2.25-.2-.79-.11-1.54-.17-2.25-.31-.79-.16-1.52-.36-2.2-.52-.79-.2-1.54-.31-2.21-.5-.82-.23-1.51-.58-2.14-.75-.91-.25-1.65-.38-2.21-.38-.7,0-1.23.22-1.46.88-.15.42-.1,1.09-.1,1.86-1.17.37-1.5.69-2.43-.11-.8-.69.06-1.01.06-2.07,0-1.06,0-1.06,0-2.11,0-1.06,0-1.06,0-2.12,0-1.06-.19-1.06-.19-2.12,0-1.06.07-1.06.07-2.12,0-1.06.05-1.06.05-2.12,0-1.06.02-1.06.02-2.12,0-1.06-.92-1.52-.12-2.22.92-.8,1.38-.32,2.55.03.06.77.05,1.61.24,2.33.2.73.59,1.41.92,2.09.33.67.71,1.33,1.17,1.94.45.6.94,1.18,1.5,1.71.54.51,1.13.99,1.77,1.44.61.42,1.22.9,1.91,1.26.66.34,1.43.49,2.16.76.69.26,1.39.59,2.14.78.72.18,1.49.21,2.26.33.73.12,1.47.36,2.25.42.74.06,1.51.09,2.29.09.77,0,1.52-.25,2.26-.28.77-.03,1.53.02,2.26-.04.77-.07,1.52-.14,2.24-.25.77-.12,1.49-.34,2.19-.52.76-.2,1.54-.27,2.19-.55.72-.31,1.31-.8,1.89-1.23.61-.46,1.25-.9,1.67-1.51.41-.6.6-1.34.8-2.1.18-.67.43-1.4.43-2.21,0-.75-.4-1.38-.71-2.01-.3-.61-.71-1.14-1.26-1.66-.49-.46-.9-1.09-1.55-1.49-.58-.36-1.27-.61-1.95-.93-.62-.3-1.3-.55-1.99-.82-.65-.26-1.35-.41-2.05-.65-.66-.23-1.32-.53-2.01-.76-.67-.22-1.34-.48-2.04-.7-.68-.22-1.38-.37-2.07-.59-.68-.22-1.31-.6-1.99-.83-.68-.22-1.37-.42-2.05-.66-.68-.24-1.4-.37-2.06-.63-.68-.26-1.36-.49-2.02-.77-.67-.28-1.35-.54-1.99-.84-.66-.32-1.18-.86-1.8-1.21-.63-.36-1.31-.63-1.89-1.03-.6-.41-1.14-.88-1.68-1.35-.55-.48-1.03-1-1.5-1.53-.47-.54-.9-1.11-1.27-1.72-.37-.61-.84-1.18-1.1-1.86-.24-.65-.3-1.39-.42-2.12-.11-.68-.16-1.39-.16-2.13,0-.75.02-1.48.11-2.18.09-.75.2-1.47.4-2.15.21-.71.58-1.34.92-1.97.34-.64.76-1.2,1.24-1.76.46-.53.86-1.17,1.47-1.62.56-.41,1.26-.66,1.95-1.01.62-.31,1.29-.57,2.02-.82.65-.23,1.35-.4,2.1-.58.67-.17,1.36-.45,2.11-.58.69-.12,1.43-.09,2.18-.17.7-.08,1.4-.38,2.16-.43.7-.05,1.44.13,2.2.11.71-.02,1.44-.23,2.19-.23.73,0,1.43.1,2.11.13.73.03,1.43.11,2.1.18.74.07,1.42.22,2.08.31.74.11,1.46.05,2.11.18.74.15,1.39.46,2.02.63.74.19,1.41.41,2.01.6.77.24,1.48.33,2.05.52.88.3,1.51.53,2,.53Z"/>
  <path class="st0" d="M522.23,1.26c.77.76.13,1.04.13,2.12,0,1.08-.04,1.08-.04,2.16,0,1.08-.02,1.08-.02,2.15,0,1.08-.14,1.08-.14,2.16,0,1.08.18,1.08.18,2.16,0,1.08-.16,1.08-.16,2.16,0,1.08.18,1.08.17,2.16,0,1.08-.17,1.08-.17,2.16,0,1.08.97,1.53.15,2.25-.91.81-1.38.36-2.55.02,0-.71.02-1.55-.09-2.28-.11-.71-.32-1.41-.53-2.11-.21-.69-.35-1.42-.65-2.09-.3-.66-.75-1.26-1.14-1.87-.39-.61-.88-1.15-1.35-1.71-.47-.55-.94-1.1-1.5-1.59-.54-.48-1.05-1.04-1.67-1.44-.61-.39-1.35-.57-2.03-.87-.65-.29-1.32-.58-2.05-.78-.69-.19-1.41-.33-2.15-.43-.7-.09-1.44-.26-2.19-.26-.18,0-.2.02-.33.14-.27.56-.57,1.22-.8,2.04-.18.64-.42,1.35-.57,2.13-.13.68-.29,1.41-.39,2.18-.1.7.05,1.46-.03,2.22-.07.71-.1,1.44-.14,2.2-.04.72-.14,1.45-.16,2.2-.02.72-.03,1.46-.03,2.21,0,1.07.04,1.07.04,2.14,0,1.07-.06,1.07-.06,2.14,0,1.07-.06,1.07-.06,2.14,0,1.07,0,1.07,0,2.14,0,1.07.15,1.07.15,2.15,0,1.07-.23,1.07-.23,2.15,0,.75.05,1.5.07,2.23.02.76.25,1.49.3,2.21.05.76-.12,1.52-.05,2.23.07.76.18,1.5.28,2.2.11.77.2,1.52.33,2.2.15.79.48,1.48.66,2.12.23.82.43,1.53.7,2.09.46.95,1,1.48,1.54,1.48.26,1.27.66,1.51-.15,2.52-.64.8-.94.06-1.97.06-1.04,0-1.04.11-2.07.11-1.04,0-1.04-.04-2.08-.04-1.04,0-1.04-.06-2.08-.06-1.04,0-1.04-.09-2.08-.09-1.04,0-1.04.07-2.08.07-1.04,0-1.33.78-1.98-.03-.81-1.01-.43-1.25-.17-2.52.54,0,1.06-.55,1.52-1.51.27-.56.6-1.23.83-2.05.18-.65.4-1.36.55-2.15.13-.68.26-1.42.37-2.19.1-.7.21-1.44.29-2.2.07-.71.04-1.46.09-2.22.04-.72.16-1.46.18-2.22.02-.73-.2-1.47-.2-2.23,0-1.07.04-1.07.04-2.14,0-1.07.11-1.07.11-2.14,0-1.07-.1-1.07-.1-2.14,0-1.07-.07-1.07-.07-2.14,0-1.07.19-1.07.19-2.15,0-1.07-.09-1.07-.09-2.15,0-.75.14-1.49.12-2.21-.02-.75-.16-1.48-.2-2.2-.04-.76-.15-1.49-.22-2.2-.07-.76-.06-1.51-.15-2.2-.1-.77-.18-1.51-.31-2.19-.15-.78-.51-1.46-.68-2.11-.22-.82-.4-1.49-.66-2.05-.17-.14-.17-.03-.39-.03-.76,0-1.48.08-2.19.17-.75.1-1.5.1-2.18.29-.72.2-1.42.47-2.07.76-.68.3-1.25.78-1.85,1.17-.62.4-1.26.76-1.8,1.23-.55.49-1.03,1.04-1.5,1.59-.48.56-.96,1.11-1.34,1.72-.39.62-.64,1.31-.94,1.96-.31.67-.76,1.28-.97,1.97-.21.71-.34,1.44-.45,2.15-.11.73-.1,1.45-.1,2.17-1.14.34-1.45.76-2.32-.04-.8-.73-.09-1.03-.09-2.11,0-1.08-.05-1.08-.05-2.16,0-1.08.21-1.08.21-2.16,0-1.08-.26-1.08-.27-2.16,0-1.08.27-1.08.27-2.16,0-1.08-.23-1.08-.23-2.17,0-1.08.1-1.08.1-2.17,0-1.08.07-1.08.07-2.17,0-1.08-.79-1.35-.02-2.12.76-.76,1.04-.1,2.12-.1,1.08,0,1.08-.01,2.17-.01,1.09,0,1.08.09,2.17.09,1.09,0,1.09-.02,2.17-.02,1.09,0,1.09.07,2.17.07,1.09,0,1.08-.19,2.17-.19,1.09,0,1.09.19,2.17.2,1.09,0,1.09-.03,2.17-.03,1.09,0,1.09.03,2.17.03,1.09,0,1.09.04,2.17.04,1.09,0,1.09-.12,2.17-.12,1.09,0,1.09-.08,2.18-.08,1.09,0,1.09.07,2.17.08,1.09,0,1.09.11,2.18.11,1.09,0,1.09.02,2.18.02,1.09,0,1.09,0,2.17,0,1.09,0,1.09-.07,2.17-.07,1.09,0,1.09-.02,2.18-.02,1.09,0,1.09.13,2.18.13,1.09,0,1.09-.23,2.18-.23,1.09,0,1.13.42,2.2.2,1.12-.23,1.35-.82,2.12-.06Z"/>
  <path class="st0" d="M575.7,1.33c.76.73-.06,1.02-.06,2.07,0,1.04.17,1.05.17,2.09,0,1.04-.13,1.04-.13,2.09,0,1.05-.03,1.04-.03,2.09,0,1.05-.06,1.05-.06,2.09,0,1.05.19,1.05.19,2.09,0,1.05-.18,1.05-.18,2.09,0,1.05-.02,1.05-.02,2.1,0,1.05.98,1.46.18,2.15-.92.79-1.32.28-2.49-.06,0-.7.04-1.43-.07-2.14-.11-.7-.31-1.4-.52-2.08-.21-.68-.59-1.29-.9-1.94-.3-.64-.61-1.28-1.01-1.88-.39-.59-.88-1.11-1.36-1.65-.48-.53-.85-1.17-1.41-1.63-.55-.45-1.25-.71-1.88-1.09-.61-.36-1.21-.76-1.89-1.04-.65-.27-1.38-.33-2.1-.52-.68-.17-1.36-.38-2.1-.47-.69-.08-1.41-.29-2.15-.29-1.02,0-1.02.24-2.04.24-1.02,0-1.02-.25-2.04-.25-1.02,0-1.02.16-2.04.16-1.02,0-1.02-.04-2.04-.04-1.02,0-1.02-.09-2.05-.09-1.02,0-1.02.21-2.05.21-1.02,0-1.39-.91-2.1-.18-.73.74.04,1.09.04,2.13,0,1.04-.02,1.04-.02,2.08,0,1.04.03,1.04.03,2.07,0,1.04-.09,1.04-.09,2.08,0,1.04.02,1.04.02,2.08,0,1.04.15,1.04.15,2.08q0,1.04,0,2.08c0,1.04-.09,1.04-.09,2.08,0,1.04-.34,1.1.02,2.08.75-.02,1.47-.15,2.18-.19.75-.04,1.48-.11,2.19-.19.76-.08,1.49-.12,2.18-.23.77-.12,1.49-.2,2.17-.35.78-.17,1.5-.3,2.14-.51.8-.26,1.53-.47,2.06-.79.84-.49,1.25-1.12,1.25-1.69,1.15-.28,1.39-.71,2.28.05.77.66.06.92.06,1.93,0,1.01.15,1.01.15,2.02,0,1.01-.06,1.01-.06,2.02,0,1.01-.12,1.01-.12,2.02,0,1.01-.01,1.01-.01,2.02,0,1.01.89,1.43.12,2.09-.9.77-1.3.3-2.45.03,0-.56-.4-1.29-1.27-1.77-.53-.3-1.27-.48-2.07-.74-.63-.2-1.31-.51-2.09-.67-.67-.15-1.42-.14-2.18-.26-.69-.1-1.41-.22-2.17-.29-.71-.07-1.43-.18-2.18-.23-.71-.04-1.48-.04-2.23-.05-.36,1.07.1,1.14.1,2.26,0,1.13-.17,1.13-.17,2.25,0,1.12-.03,1.12-.03,2.25,0,1.12.16,1.12.16,2.25,0,1.13.04,1.13.04,2.25,0,1.13-.1,1.13-.1,2.25,0,1.13-.11,1.13-.1,2.25,0,1.13.05,1.13.05,2.26,0,1.13-.63,1.38.14,2.21.71.76,1,.01,2.04.01,1.05,0,1.04-.06,2.09-.06,1.05,0,1.05.05,2.09.05,1.05,0,1.05.05,2.09.05,1.05,0,1.05-.03,2.1-.03,1.05,0,1.05-.08,2.1-.08,1.05,0,1.05.1,2.1.1,1.05,0,1.05.04,2.1.04.76,0,1.5,0,2.21-.08.75-.1,1.42-.46,2.11-.65.72-.2,1.43-.36,2.09-.65.68-.3,1.38-.55,1.99-.94.62-.4,1.19-.87,1.74-1.35.55-.48,1.13-.96,1.6-1.51.48-.56.72-1.28,1.11-1.89.39-.62.93-1.16,1.23-1.81.31-.67.47-1.39.68-2.07.21-.7.34-1.42.45-2.12.11-.73.18-1.48.18-2.19,1.14-.34,1.55-.8,2.43-.01.8.72-.12,1.12-.12,2.19,0,1.07-.03,1.07-.03,2.14,0,1.07.25,1.07.25,2.14,0,1.07-.26,1.07-.26,2.14,0,1.07.25,1.07.25,2.14,0,1.07-.14,1.07-.14,2.14,0,1.07.12,1.07.12,2.14,0,1.07-.08,1.07-.08,2.15,0,1.07.72,1.35-.05,2.11-.76.76-1.04.07-2.12.07-1.08,0-1.08-.08-2.16-.08-1.08,0-1.08.18-2.16.18-1.08,0-1.08-.12-2.16-.12-1.08,0-1.08.1-2.16.1-1.08,0-1.08-.18-2.16-.17-1.08,0-1.08.02-2.17.03-1.08,0-1.08-.04-2.16-.04-1.08,0-1.08-.02-2.17-.02-1.08,0-1.08.04-2.16.05-1.08,0-1.08.2-2.17.2-1.08,0-1.08-.09-2.16-.09-1.08,0-1.08-.02-2.17-.02-1.08,0-1.08-.08-2.17-.08-1.08,0-1.08.09-2.16.09-1.08,0-1.08-.08-2.17-.08-1.08,0-1.08-.05-2.17-.05-1.08,0-1.08.24-2.17.24-1.08,0-1.08-.17-2.17-.17-1.09,0-1.09.03-2.17.03-1.09,0-1.57.92-2.27.09-.84-.99-.29-1.42-.02-2.69.55,0,1.2-.49,1.66-1.44.27-.56.51-1.27.74-2.09.18-.65.36-1.37.51-2.16.13-.68.1-1.43.21-2.21.09-.7.36-1.42.43-2.18.07-.71.2-1.45.24-2.21.04-.72.05-1.47.07-2.22.02-.73-.1-1.47-.1-2.22,0-1.07.01-1.07.01-2.14q0-1.07,0-2.14c0-1.07.06-1.07.06-2.14,0-1.07-.19-1.07-.19-2.14,0-1.07.06-1.07.06-2.14,0-1.07.04-1.07.03-2.14,0-.75.04-1.5.02-2.22-.02-.76,0-1.5-.05-2.22-.04-.76-.28-1.49-.35-2.2-.07-.77-.06-1.51-.15-2.21-.1-.78-.27-1.5-.4-2.18-.15-.79-.33-1.5-.51-2.15-.23-.82-.44-1.53-.71-2.08-.46-.94-.89-1.5-1.44-1.5-.27-1.3-.96-1.68-.12-2.72.67-.83,1.16-.05,2.23-.05,1.08,0,1.08.16,2.15.16,1.08,0,1.08-.01,2.15,0q1.08,0,2.15,0c1.08,0,1.08-.1,2.15-.1,1.08,0,1.08.2,2.15.2,1.08,0,1.08-.14,2.15-.14,1.08,0,1.08,0,2.15,0,1.08,0,1.08-.02,2.15-.02,1.08,0,1.08.08,2.16.09,1.08,0,1.08-.11,2.15-.11,1.08,0,1.08,0,2.16,0,1.08,0,1.08.13,2.16.13,1.08,0,1.08,0,2.15,0,1.08,0,1.08-.14,2.15-.14,1.08,0,1.08.05,2.16.05,1.08,0,1.08.05,2.16.05,1.08,0,1.08-.09,2.16-.09,1.08,0,1.13.43,2.19.22,1.12-.23,1.34-.84,2.11-.1Z"/>
  <path class="st0" d="M628.62,4.08c.61,0,.96-.26,1.12-1.02.09-.41.14-.85.14-1.57,1.17-.34,1.41-.8,2.33-.01.8.69.01.95.01,2,0,1.04-.06,1.04-.06,2.09,0,1.04.27,1.05.27,2.09q0,1.05,0,2.09c0,1.04-.11,1.05-.11,2.09,0,1.05.04,1.05.04,2.09,0,1.05-.18,1.05-.18,2.1,0,1.05.98,1.49.18,2.18-.92.79-1.37.35-2.55,0-.06-.73-.21-1.51-.37-2.2-.16-.71-.16-1.47-.42-2.13-.27-.67-.67-1.3-1.05-1.91-.38-.61-.87-1.15-1.35-1.7-.48-.53-1.06-.95-1.65-1.41-.56-.43-1.1-.92-1.75-1.28-.62-.34-1.26-.7-1.96-.97-.66-.25-1.39-.37-2.12-.56-.68-.18-1.4-.26-2.15-.37-.7-.11-1.4-.36-2.15-.41-.7-.05-1.44-.13-2.2-.13-.81,0-1.58,0-2.31.04-.81.04-1.57.23-2.29.3-.82.08-1.6.08-2.3.21-.82.16-1.56.39-2.22.6-.81.26-1.47.65-2.06,1-.73.42-1.28.91-1.74,1.43-.52.6-.93,1.22-1.15,1.92-.22.7-.43,1.45-.43,2.23,0,.74.34,1.39.65,2.02.3.61.62,1.25,1.17,1.78.48.46,1.05.92,1.7,1.33.57.36,1.23.68,1.91,1.01.62.3,1.35.41,2.05.7.64.26,1.3.54,1.99.8.66.24,1.33.49,2.02.73.67.23,1.36.41,2.05.64.67.22,1.3.6,1.99.83.68.22,1.4.31,2.09.54.68.23,1.3.63,1.98.87.68.24,1.43.27,2.1.53.67.26,1.34.55,1.99.83.67.28,1.24.74,1.88,1.05.66.32,1.36.51,1.97.86.63.36,1.19.82,1.77,1.21.6.41,1.16.84,1.7,1.3.55.47,1.19.84,1.66,1.37.48.54.78,1.2,1.16,1.79.37.6.84,1.16,1.1,1.83.25.64.37,1.36.5,2.07.12.67.1,1.38.1,2.11,0,.74.02,1.45-.05,2.12-.08.74-.22,1.43-.39,2.09-.19.71-.47,1.36-.77,1.98-.31.65-.59,1.31-1.02,1.87-.43.56-.94,1.07-1.49,1.55-.53.46-1.06.95-1.7,1.33-.59.35-1.33.49-2.01.78-.64.26-1.29.55-2,.77-.66.2-1.33.47-2.07.63-.68.14-1.42.07-2.16.18-.69.1-1.38.31-2.12.38-.7.07-1.41.16-2.15.21-.7.04-1.42-.08-2.16-.06-.7.02-1.42.01-2.16.02-.78,0-1.54.23-2.27.2-.78-.03-1.52-.34-2.24-.4-.79-.07-1.54-.12-2.25-.22-.79-.11-1.56-.05-2.26-.19-.79-.15-1.5-.43-2.18-.6-.79-.19-1.52-.38-2.18-.56-.82-.23-1.58-.32-2.21-.5-.91-.25-1.61-.43-2.17-.43-.7,0-1.22.12-1.46.77-.15.41-.13,1.02-.12,1.78-1.17.36-1.55.82-2.47.03-.8-.69.05-1.08.05-2.13,0-1.05-.12-1.04-.12-2.09,0-1.05-.02-1.05-.02-2.09,0-1.05.23-1.05.23-2.1,0-1.05-.15-1.05-.15-2.1,0-1.05.17-1.05.17-2.1,0-1.05-.13-1.05-.13-2.1,0-1.05-.88-1.5-.08-2.19.92-.79,1.35-.25,2.52.1.06.76.17,1.49.36,2.2.2.73.46,1.44.8,2.11.33.67.71,1.33,1.17,1.94.45.59,1.03,1.09,1.58,1.62.54.51,1.06,1.07,1.69,1.51.61.42,1.3.76,1.99,1.11.66.33,1.38.59,2.1.86.69.26,1.4.53,2.16.73.72.18,1.46.34,2.23.46.73.12,1.5.07,2.28.12.74.05,1.49.07,2.27.07.77,0,1.52.1,2.26.07.77-.03,1.52-.14,2.25-.2.77-.07,1.53-.05,2.25-.16.77-.12,1.52-.24,2.22-.42.76-.2,1.46-.48,2.12-.76.72-.31,1.44-.6,2.01-1.03.61-.45,1.1-1.05,1.52-1.66.41-.59.67-1.28.88-2.03.18-.66.32-1.39.32-2.19,0-.74-.22-1.41-.53-2.03-.3-.61-.63-1.26-1.18-1.78-.49-.46-1.2-.7-1.85-1.1-.58-.35-1.11-.86-1.8-1.18-.62-.29-1.32-.48-2.02-.76-.65-.25-1.33-.48-2.02-.73-.66-.23-1.29-.6-1.99-.83-.67-.22-1.35-.44-2.05-.66-.68-.21-1.39-.34-2.08-.56-.68-.21-1.4-.33-2.08-.56-.68-.22-1.38-.39-2.06-.63-.68-.24-1.27-.71-1.94-.96-.68-.25-1.37-.44-2.03-.71-.67-.28-1.39-.44-2.03-.75-.66-.31-1.31-.63-1.93-.97-.63-.36-1.11-.95-1.69-1.34-.6-.41-1.32-.65-1.85-1.11-.55-.47-.95-1.09-1.41-1.62-.47-.54-.86-1.12-1.23-1.73-.37-.6-.64-1.23-.9-1.91-.24-.65-.54-1.29-.66-2.01-.11-.67-.04-1.38-.04-2.12,0-.74,0-1.46.08-2.15.09-.74.09-1.47.29-2.14.21-.7.44-1.4.78-2.03.34-.63.76-1.24,1.25-1.8.46-.52,1.14-.86,1.75-1.31.56-.41,1.11-.87,1.8-1.22.62-.31,1.29-.58,2.02-.83.65-.23,1.35-.44,2.09-.63.67-.16,1.38-.36,2.14-.49.69-.11,1.43-.08,2.19-.16.7-.08,1.41-.34,2.17-.39.7-.05,1.44.03,2.2,0,.71-.02,1.44-.07,2.2-.07.73,0,1.44-.05,2.11-.02.73.03,1.42.28,2.09.34.74.07,1.44.08,2.1.17.74.11,1.41.3,2.06.43.74.15,1.46.16,2.09.32.74.19,1.36.58,1.96.77.77.24,1.49.28,2.06.47.88.29,1.52.52,2,.52Z"/>
  <path class="st0" d="M683.63,4.19c.61,0,1.04-.28,1.2-1.03.09-.41,0-1.03,0-1.74,1.17-.34,1.48-.66,2.41.12.8.68.08.98.08,2.02,0,1.04-.12,1.04-.12,2.08,0,1.04.06,1.04.06,2.08,0,1.04.07,1.04.08,2.08,0,1.04.09,1.04.09,2.09,0,1.04-.18,1.04-.18,2.09,0,1.04.19,1.04.19,2.09,0,1.05.71,1.46-.09,2.14-.92.79-1.31.25-2.48-.09-.06-.73-.08-1.42-.23-2.11-.16-.71-.52-1.35-.78-2.01-.27-.67-.53-1.34-.91-1.95-.38-.61-.74-1.25-1.22-1.79-.48-.53-1.15-.87-1.74-1.32-.56-.43-1.11-.89-1.77-1.25-.62-.34-1.3-.57-2-.84-.65-.25-1.32-.54-2.05-.73-.68-.17-1.37-.46-2.12-.58-.7-.11-1.44-.03-2.2-.09-.7-.05-1.43-.12-2.19-.12-.81,0-1.58-.03-2.3,0-.82.04-1.57.19-2.29.26-.82.08-1.57.23-2.26.36-.82.15-1.56.31-2.22.52-.81.26-1.5.55-2.09.9-.73.42-1.33.86-1.79,1.38-.52.6-.91,1.24-1.13,1.94-.22.7-.33,1.45-.33,2.23,0,.74.3,1.37.61,1.99.3.6.55,1.3,1.1,1.81.48.46,1.1.86,1.75,1.27.57.36,1.18.76,1.86,1.09.62.3,1.32.5,2.01.78.64.26,1.37.38,2.06.63.66.24,1.32.52,2.01.75.67.22,1.3.58,2,.81.67.22,1.41.28,2.1.51.68.22,1.35.49,2.03.72.68.23,1.32.57,1.99.81.68.24,1.33.53,2,.79.67.26,1.42.32,2.08.6.67.28,1.23.77,1.87,1.07.65.32,1.41.42,2.03.76.63.36,1.14.89,1.73,1.28.6.41,1.24.75,1.77,1.2.55.47,1.12.92,1.59,1.44.48.53.89,1.13,1.27,1.72.38.6.67,1.25.92,1.91.25.64.35,1.34.48,2.06.12.67.35,1.36.35,2.09,0,.74-.07,1.45-.14,2.13-.08.73-.41,1.39-.58,2.05-.19.71-.25,1.43-.54,2.05-.31.65-.73,1.24-1.15,1.8-.43.56-.89,1.12-1.43,1.6-.53.46-1.13.86-1.77,1.23-.59.35-1.24.68-1.92.97-.64.27-1.34.45-2.05.66-.66.2-1.35.42-2.08.58-.68.14-1.39.25-2.13.36-.69.1-1.41.14-2.15.21-.7.07-1.41.14-2.15.18-.7.04-1.42.13-2.16.16-.7.02-1.43-.07-2.16-.07-.78,0-1.54.02-2.27-.01-.78-.03-1.54-.1-2.26-.17-.79-.07-1.53-.19-2.24-.3-.79-.11-1.52-.28-2.22-.41-.79-.15-1.52-.31-2.21-.47-.79-.19-1.5-.43-2.17-.62-.82-.23-1.57-.37-2.2-.54-.91-.25-1.65-.3-2.21-.3-.7,0-1.19.15-1.42.8-.15.41-.15,1.02-.15,1.78-1.17.36-1.58.83-2.5.04-.8-.68.15-1.1.15-2.14,0-1.04-.03-1.04-.03-2.08,0-1.04,0-1.04,0-2.09,0-1.05-.09-1.04-.09-2.09,0-1.04.03-1.04.03-2.09,0-1.04.11-1.05.11-2.09,0-1.05-.08-1.05-.09-2.09,0-1.05-.91-1.48-.11-2.17.92-.79,1.37-.36,2.54,0,.06.76.25,1.55.44,2.26.2.73.33,1.47.66,2.14.33.67.68,1.36,1.13,1.96.45.59.98,1.15,1.54,1.68.54.5,1.15.97,1.79,1.41.61.42,1.26.84,1.95,1.19.66.33,1.45.43,2.18.7.69.25,1.4.5,2.16.69.72.18,1.43.46,2.2.58.73.12,1.5.17,2.27.23.74.05,1.5-.08,2.28-.09.77,0,1.52.07,2.26.04.77-.03,1.52-.09,2.25-.15.77-.07,1.53-.05,2.25-.16.77-.12,1.54-.19,2.24-.37.76-.2,1.4-.65,2.05-.94.72-.31,1.39-.62,1.96-1.04.61-.45,1.18-.93,1.61-1.53.41-.59.62-1.28.82-2.03.18-.66.41-1.36.41-2.16,0-.74-.31-1.36-.62-1.98-.3-.6-.65-1.19-1.2-1.7-.49-.45-1.03-.9-1.68-1.3-.58-.35-1.24-.63-1.92-.95-.62-.29-1.28-.56-1.98-.83-.65-.25-1.31-.53-2-.77-.66-.23-1.28-.64-1.98-.87-.67-.22-1.42-.24-2.11-.46-.68-.21-1.35-.47-2.04-.68-.68-.21-1.31-.58-2-.8-.68-.22-1.37-.43-2.05-.66-.68-.23-1.35-.49-2.02-.74-.68-.25-1.34-.52-2-.79-.67-.28-1.43-.35-2.06-.66-.66-.31-1.27-.7-1.88-1.04-.63-.35-1.25-.73-1.83-1.13-.6-.41-1.15-.88-1.68-1.33-.55-.47-1.1-.94-1.56-1.46-.47-.54-.82-1.16-1.19-1.77-.37-.6-.64-1.24-.89-1.91-.24-.65-.63-1.28-.75-2-.11-.67-.04-1.39-.03-2.13,0-.74.04-1.46.13-2.15.09-.73.23-1.44.43-2.11.21-.7.37-1.42.71-2.05.34-.63.85-1.16,1.34-1.71.46-.52.92-1.11,1.53-1.55.56-.41,1.28-.61,1.97-.95.62-.31,1.27-.58,2-.84.65-.23,1.32-.53,2.06-.71.68-.16,1.37-.41,2.13-.53.69-.11,1.43-.09,2.19-.17.7-.08,1.43-.04,2.19-.09.7-.04,1.42-.27,2.18-.29.71-.02,1.44.15,2.2.15.73,0,1.44-.15,2.11-.12.73.03,1.44.02,2.11.08.74.07,1.41.32,2.07.41.74.1,1.42.23,2.07.36.74.15,1.43.28,2.06.44.74.19,1.46.24,2.07.43.77.24,1.37.64,1.94.83.88.29,1.56.44,2.04.44Z"/>
</svg>